<?xml version="1.0" encoding="utf-8"?>
<!-- Generator: Adobe Illustrator 24.1.3, SVG Export Plug-In . SVG Version: 6.00 Build 0)  -->
<svg version="1.1" id="Layer_1" xmlns="http://www.w3.org/2000/svg" xmlns:xlink="http://www.w3.org/1999/xlink" x="0px" y="0px"
	 viewBox="0 0 470.5 470" style="enable-background:new 0 0 470.5 470;" xml:space="preserve">
<style type="text/css">
	.st0{fill:#010101;}
	.st1{fill:#FFFFFF;}
	.st2{fill:#F57F20;}
</style>
<g id="Group_3" transform="translate(66 141)">
	<circle id="Ellipse_1" class="st0" cx="170.5" cy="94.5" r="228"/>
	<g id="Group_1" transform="translate(3 -8)">
		<g id="developer" transform="translate(1927.449 821.609)">
			<path id="Path_1" class="st1" d="M-1757.4-771c-29.2,0-52.8-23.7-52.8-52.8c0-29.2,23.7-52.8,52.8-52.8
				c29.2,0,52.8,23.6,52.8,52.8C-1704.6-794.7-1728.3-771.1-1757.4-771z M-1757.4-860.8c-20.4,0-37,16.6-37,37c0,20.4,16.6,37,37,37
				s37-16.6,37-37C-1720.5-844.3-1737-860.8-1757.4-860.8z"/>
			<path id="Path_2" class="st1" d="M-1759-649.5h-88.2c-4.4,0-7.9-3.5-7.9-7.9v-42.3c0-27.7,22.5-50.2,50.2-50.2h95.1
				c15.2-0.1,29.6,6.8,39.1,18.7c2.7,3.4,2.2,8.4-1.2,11.1c-3.4,2.7-8.4,2.2-11.1-1.2l0,0c-6.5-8.1-16.4-12.9-26.8-12.8h-95.1
				c-19,0-34.3,15.4-34.3,34.3v34.3h80.3c4.4,0,7.9,3.5,7.9,7.9S-1754.6-649.5-1759-649.5C-1759-649.5-1759-649.5-1759-649.5z"/>
			<path id="Path_3" class="st1" d="M-1675.5-623.1c-0.6,0-1.2-0.1-1.8-0.2c-4.3-1-6.9-5.2-6-9.5c0,0,0,0,0,0l15.8-68.7
				c1-4.3,5.2-6.9,9.5-5.9c4.3,1,6.9,5.2,5.9,9.5l0,0l-15.8,68.7C-1668.7-625.6-1671.9-623.1-1675.5-623.1z"/>
			<path id="Path_4" class="st2" d="M-1633.3-633.7c-4.4,0-7.9-3.5-7.9-7.9c0-2.3,1-4.4,2.6-5.9l19.9-17.9l-19.9-17.9
				c-3.3-2.9-3.5-7.9-0.6-11.2c2.9-3.3,7.9-3.5,11.2-0.6l0,0l26.4,23.8c3.3,2.9,3.5,8,0.6,11.2c-0.2,0.2-0.4,0.4-0.6,0.6l-26.4,23.8
				C-1629.4-634.4-1631.3-633.7-1633.3-633.7z"/>
			<path id="Path_5" class="st2" d="M-1702-633.7c-2,0-3.8-0.7-5.3-2l-26.4-23.8c-3.3-2.9-3.5-8-0.6-11.2c0.2-0.2,0.4-0.4,0.6-0.6
				l26.4-23.8c3.3-2.9,8.3-2.7,11.2,0.6s2.7,8.3-0.6,11.2l0,0l-19.9,17.9l19.9,17.9c3.3,2.9,3.5,7.9,0.6,11.2
				C-1697.6-634.6-1699.7-633.7-1702-633.7z"/>
		</g>
		<path id="Path_6" class="st2" d="M168.4,135.7H80.2c-4.4,0-7.9,3.5-7.9,7.9v42.3c0,27.7,22.5,50.2,50.2,50.2h95.1
			c15.2,0.1,29.6-6.8,39.1-18.7c2.7-3.4,2.2-8.4-1.2-11.1c-3.4-2.7-8.4-2.2-11.1,1.2l0,0c-6.5,8.1-16.4,12.9-26.8,12.8h-95.1
			c-19,0-34.3-15.4-34.3-34.3v-34.3h80.3c4.4,0,7.9-3.5,7.9-7.9C176.4,139.3,172.8,135.7,168.4,135.7z"/>
	</g>
</g>
</svg>
