<svg width="257" height="260" viewBox="0 0 257 260" fill="none" xmlns="http://www.w3.org/2000/svg">
<path d="M121 37H204V236H121V37Z" fill="#82A9FF" fill-opacity="0.21"/>
<g clip-path="url(#clip0_20_128)">
<path d="M70.5057 79.0001C84.5858 79.0001 96 67.4901 96 53.2917C96 39.0933 84.5858 27.5833 70.5057 27.5833C56.4256 27.5833 45.0114 39.0933 45.0114 53.2917C45.0114 67.4901 56.4256 79.0001 70.5057 79.0001Z" fill="#F3F2FF"/>
<path d="M70.5057 53.2915L72.6404 78.9077C71.939 78.9692 71.2071 78.9999 70.5057 78.9999C56.4168 78.9999 45.0114 67.4988 45.0114 53.2915H70.5057Z" fill="#B5B9FF"/>
<path d="M70.5057 53.2917H45.0114C45.0114 48.6175 46.2618 44.22 48.4269 40.4375L70.5057 53.2917Z" fill="#D9DAFF"/>
<path d="M70.2618 53.7221L45.9568 39.5763L46.2008 39.1458C48.6709 34.8405 52.2389 31.2733 56.5083 28.7825C60.6252 26.3838 65.413 25 70.5057 25H70.9937V54.1219L70.2618 53.7221ZM47.2681 39.2073L70.0178 52.4613V25.9841C65.2605 26.0763 60.8081 27.3679 56.9657 29.6128C53.0013 31.9191 49.6468 35.2403 47.2681 39.2073Z" fill="white"/>
<path d="M55.3494 35.794L46.5667 30.6892H12.5032V29.8281H46.7802L55.7763 35.0559L55.3494 35.794Z" fill="#EEEDFF"/>
<path d="M46.8412 51.139L39.8577 49.2631H12.4117V48.4021H39.9797L47.0546 50.3087L46.8412 51.139Z" fill="#EEEDFF"/>
<path d="M53.1842 70.1126L50.6226 72.6958H11.8018V71.8655H50.2872L52.6048 69.5283L53.1842 70.1126Z" fill="#EEEDFF"/>
<path d="M1.06734 27.2756H4.94028C5.18424 27.2756 5.39771 27.4909 5.39771 27.7369V31.6424C5.39771 31.8884 5.18424 32.1037 4.94028 32.1037H1.06734C0.823378 32.1037 0.609909 31.8884 0.609909 31.6424V27.7369C0.609909 27.4909 0.823378 27.2756 1.06734 27.2756Z" fill="#EEEDFF"/>
<path d="M6.58704 27.2756H10.46C10.7039 27.2756 10.9174 27.4909 10.9174 27.7369V31.6424C10.9174 31.8884 10.7039 32.1037 10.46 32.1037H6.58704C6.34308 32.1037 6.12961 31.8884 6.12961 31.6424V27.7369C6.12961 27.4909 6.31258 27.2756 6.58704 27.2756Z" fill="#EEEDFF"/>
<path d="M1.76874 46.7107H5.64168C5.88564 46.7107 6.09911 46.926 6.09911 47.172V51.0774C6.09911 51.3234 5.88564 51.5387 5.64168 51.5387H1.76874C1.52478 51.5387 1.31131 51.3234 1.31131 51.0774V47.172C1.31131 46.926 1.52478 46.7107 1.76874 46.7107Z" fill="#D9DAFF"/>
<path d="M0.457433 69.344H4.33037C4.57433 69.344 4.7878 69.5593 4.7878 69.8053V73.7107C4.7878 73.9567 4.57433 74.172 4.33037 74.172H0.457433C0.213469 74.172 0 73.9567 0 73.7107V69.8053C0 69.5593 0.213469 69.344 0.457433 69.344Z" fill="#B5B9FF"/>
<path d="M5.97713 69.344H9.85007C10.094 69.344 10.3075 69.5593 10.3075 69.8053V73.7107C10.3075 73.9567 10.094 74.172 9.85007 74.172H5.97713C5.73317 74.172 5.5197 73.9567 5.5197 73.7107V69.8053C5.5197 69.5593 5.70267 69.344 5.97713 69.344Z" fill="#B5B9FF"/>
</g>
<g clip-path="url(#clip1_20_128)">
<path d="M137.208 67.0566C140.576 66.9616 143.377 69.6221 143.473 73.0063C143.548 75.6938 141.879 78.032 139.526 78.945C142.023 81.365 143.654 84.706 143.76 88.4883C143.847 91.5739 142.887 94.44 141.268 96.7768C141.367 96.774 141.515 96.7698 141.614 96.767C149.044 96.5576 155.258 102.459 155.468 109.924C155.678 117.389 149.807 123.631 142.377 123.841C134.948 124.05 128.734 118.149 128.524 110.684C128.438 107.648 129.35 104.833 130.922 102.547C130.773 102.551 130.624 102.556 130.476 102.56C122.896 102.724 116.632 96.7739 116.418 89.2092C116.205 81.6445 122.125 75.3513 129.653 75.1391C130.297 75.1209 130.943 75.1525 131.589 75.2339C131.374 74.6423 131.258 74.0479 131.239 73.3511C131.193 69.9655 133.84 67.1515 137.208 67.0566ZM159.733 97.7007C161.616 97.6477 163.144 99.0989 163.197 100.99C163.25 102.881 161.806 104.416 159.924 104.469C158.042 104.522 156.514 103.071 156.461 101.18C156.407 99.2887 157.851 97.7538 159.733 97.7007ZM151.121 126.284C152.508 126.245 153.679 127.357 153.719 128.751C153.758 130.144 152.651 131.321 151.264 131.36C149.877 131.399 148.706 130.287 148.666 128.893C148.627 127.5 149.734 126.323 151.121 126.284Z" fill="#DBD9FF"/>
<path d="M185.825 47.357L174.365 50.5191C174.365 50.5191 156.846 63.8632 138.412 90.4321L139.057 113.325C153.588 94.238 170.981 74.6715 188.064 63.4813L185.825 47.357Z" fill="#DBD9FF"/>
<path d="M234.952 0.000129866C234.952 0.000129866 236.272 20.4338 203.896 51.8286C203.896 51.8286 203.919 61.4408 202.475 62.9757C201.031 64.5106 192.723 72.2159 192.723 72.2159C192.723 72.2159 191.401 72.8011 191.023 71.716C190.646 70.6308 188.911 61.8638 188.911 61.8638L188.066 63.5313C188.066 63.5313 185.52 64.649 180.373 59.6639C180.373 59.6639 178.601 61.8556 176.668 61.8602C176.565 59.9705 178.641 58.0192 178.641 58.0192C173.398 53.1365 174.365 50.5192 174.365 50.5192L175.974 49.5773C175.974 49.5773 167.116 48.3328 166.066 48.0137C164.967 47.6961 165.474 46.337 165.474 46.337C165.474 46.337 172.662 37.5675 174.106 36.0326C175.549 34.4976 185.102 33.9794 185.102 33.9794C214.423 -0.267947 234.952 0.000129866 234.952 0.000129866Z" fill="white"/>
<path d="M234.952 0.00018231C234.952 0.00018231 236.271 20.4339 203.895 51.8286C203.895 51.8286 203.919 61.4408 202.475 62.9758C201.031 64.5107 192.722 72.216 192.722 72.216C192.722 72.216 191.4 72.8011 191.023 71.716C190.645 70.6309 188.911 61.8638 188.911 61.8638L188.066 63.5313C188.066 63.5313 186.401 64.2755 183.064 61.929C210.976 49.7862 234.952 0.00018231 234.952 0.00018231Z" fill="#DBD9FF"/>
<path d="M189.228 60.809C187.025 60.0244 184.808 58.7421 182.827 57.0546C188.454 50.9191 196.683 40.377 196.683 40.377C191.117 45.166 184.563 51.8257 181.095 55.41C179.359 53.616 177.911 51.4653 176.951 49.0518L175.973 49.5277L174.363 50.4696C174.363 50.4696 173.396 53.0868 178.64 57.9696C178.64 57.9696 176.562 59.871 176.666 61.8106C178.549 61.8073 180.371 59.6142 180.371 59.6142C185.518 64.5993 188.064 63.4816 188.064 63.4816L188.91 61.8141L189.228 60.809Z" fill="#6DED02"/>
<path d="M189.228 60.8089L188.911 61.8638C188.911 61.8638 190.647 70.6806 191.023 71.7159C191.4 72.8011 192.722 72.2159 192.722 72.2159C192.722 72.2159 201.031 64.5106 202.475 62.9757C203.919 61.4407 203.895 51.8286 203.895 51.8286C201.098 54.597 190.928 61.3088 190.928 61.3088C190.329 61.1763 189.779 60.9926 189.228 60.8089Z" fill="#6DED02"/>
<path d="M176.362 47.5242C177.355 44.0595 185.052 33.9807 185.052 33.9807C185.052 33.9807 175.499 34.4989 174.056 36.0339C172.612 37.5688 165.424 46.3383 165.424 46.3383C165.424 46.3383 164.917 47.6974 166.016 48.015C167.116 48.3327 175.925 49.5786 175.925 49.5786L176.903 49.1028C176.738 48.5595 176.525 48.0177 176.362 47.5242Z" fill="#6DED02"/>
<path d="M216.01 6.8097C220.701 13.2023 225.768 17.0939 229.247 19.1873C235.399 7.06012 234.952 5.15999e-05 234.952 5.15999e-05C234.952 5.15999e-05 227.861 -0.0989164 216.01 6.8097Z" fill="#6DED02"/>
<path d="M225.659 16.7483C226.976 17.7572 228.139 18.5711 229.198 19.1888C235.399 7.06019 234.952 0.000118322 234.952 0.000118322C234.952 0.000118322 231.486 7.17048 225.659 16.7483Z" fill="#2F70FE"/>
<path d="M207.548 35.4384C211.104 35.3381 213.905 32.3602 213.804 28.787C213.703 25.2138 210.739 22.3985 207.183 22.4987C203.627 22.5989 200.826 25.5768 200.926 29.15C201.027 32.7232 203.992 35.5386 207.548 35.4384Z" fill="#6DED02"/>
<path d="M207.514 34.2441C210.414 34.1624 212.698 31.7343 212.615 28.8207C212.533 25.9072 210.116 23.6116 207.217 23.6933C204.317 23.7751 202.033 26.2032 202.115 29.1167C202.197 32.0302 204.614 34.3259 207.514 34.2441Z" fill="white"/>
<path d="M210.386 25.3473C212.474 27.3306 212.568 30.665 210.597 32.8125C210.019 33.4265 209.289 33.8953 208.503 34.1665C209.488 33.9395 210.465 33.4139 211.187 32.6464C213.16 30.5487 213.066 27.2143 210.976 25.1813C209.499 23.7785 207.456 23.3878 205.64 24.0367C207.314 23.6408 209.062 24.0896 210.386 25.3473Z" fill="#DBD9FF"/>
<path d="M212.102 33.4674C209.648 36.0767 205.537 36.1926 202.939 33.7256C201.462 32.3228 200.813 30.3986 200.91 28.553C200.425 30.7084 201.085 33.0308 202.768 34.6768C205.365 37.1438 209.476 37.0279 211.931 34.4185C212.989 33.2929 213.594 31.8813 213.702 30.4338C213.484 31.4859 212.919 32.5478 212.102 33.4674Z" fill="#DBD9FF"/>
<path d="M184.753 58.5442L197.16 39.7159L195.813 41.1982C196.104 40.941 196.394 40.6838 196.684 40.4266C196.684 40.4266 188.454 50.9189 182.829 57.1042C183.437 57.5851 184.095 58.0646 184.753 58.5442Z" fill="#DBD9FF"/>
<path d="M181.787 34.2221L173.185 49.1079C174.778 49.3619 176.022 49.5261 176.022 49.5261L177 49.0502C176.788 48.5581 176.624 48.0149 176.46 47.4716C177.453 44.0069 185.149 33.9281 185.149 33.9281C185.149 33.9281 183.617 34.0709 181.787 34.2221Z" fill="#2F70FE"/>
<path d="M203.895 51.8285C201.098 54.5969 190.928 61.3088 190.928 61.3088C190.379 61.1748 189.828 60.9911 189.278 60.8074L188.96 61.8623C188.96 61.8623 189.366 63.9428 189.825 66.1712L203.868 54.3694C203.875 52.875 203.895 51.8285 203.895 51.8285Z" fill="#2F70FE"/>
<path d="M176.553 33.1741C176.553 33.1741 153.051 52.3151 141.718 70.5652C141.768 70.5638 150.411 48.3551 176.553 33.1741Z" fill="white"/>
</g>
<path fill-rule="evenodd" clip-rule="evenodd" d="M155.459 234.549C168.476 237.978 190.842 239.13 219.322 238.952C245.754 238.971 256.344 241.689 255.948 246.463C252.881 253.866 209.181 257.652 134.18 257.809C72.2648 258.002 43.4015 253.564 35.0642 245.892C22.4019 232.679 115.54 224.209 155.459 234.549Z" fill="url(#paint0_linear_20_128)"/>
<g clip-path="url(#clip2_20_128)">
<path d="M128.51 15.0364C128.51 15.0364 139.394 13.5226 141.58 12.0087C141.58 12.0087 146.099 12.0087 146.487 14.1086C146.487 14.1086 143.864 17.2828 147.168 22.2638C147.168 22.2638 147.653 20.0663 149.645 19.8709L149.354 12.1064C149.354 12.1064 149.84 6.97889 145.321 4.92788C140.803 2.87688 130.891 4.63488 128.17 7.76023L127.15 10.7879H126.324C126.324 10.7391 125.109 14.5969 128.51 15.0364Z" fill="url(#paint1_linear_20_128)"/>
<path d="M146.536 14.0597C146.536 14.0597 143.912 17.2339 147.216 22.2149C147.216 22.2149 147.702 20.0174 149.694 19.822L149.403 12.5947C147.556 12.3505 146.536 14.0597 146.536 14.0597Z" fill="#4F4387"/>
<path d="M135.652 43.7016C135.772 43.8619 135.772 43.8619 135.772 43.8618L135.773 43.8615L135.774 43.8603L135.781 43.8556L135.805 43.837L135.902 43.7645C135.987 43.7009 136.111 43.6074 136.27 43.4876C136.587 43.2481 137.041 42.9035 137.589 42.4831C138.686 41.6424 140.158 40.4983 141.663 39.2853C143.167 38.0727 144.706 36.7894 145.934 35.6706C146.547 35.1113 147.085 34.5911 147.503 34.14C147.787 33.8333 148.023 33.5509 148.189 33.3051C148.732 34.1979 149.41 35.0533 150.122 35.8996C150.083 35.9563 150.031 36.0318 149.967 36.1254C149.81 36.3572 149.581 36.7006 149.295 37.1477C148.724 38.039 147.924 39.343 147.002 40.9993L140.161 49.1169L135.359 44.1486L135.238 44.0232L135.097 44.1263L132.209 46.241L132.675 42.8761L132.771 42.8761L132.79 42.6977L133.026 40.5235C133.189 40.7458 133.356 40.975 133.523 41.2049C134.289 42.2555 135.066 43.3227 135.5 43.8314L135.622 43.974L135.772 43.8619L135.652 43.7016Z" fill="white" stroke="black" stroke-width="0.4"/>
<path d="M140.171 49.4152L135.215 44.3365L131.814 46.827C130.454 48.3409 120.979 59.2308 120.202 68.6068C119.376 78.7154 120.202 99.5184 117.481 109.383C117.238 110.311 116.995 111.19 116.752 112.069C118.355 112.801 120.639 113.631 123.068 113.827C126.664 114.071 137.013 113.485 141.92 113.143C139.394 104.695 136.576 92.8771 136.138 80.6687C135.555 64.4071 142.843 48.8781 147.216 41.1135L140.171 49.4152Z" fill="white"/>
<path d="M147.168 41.0645C142.795 48.8779 135.507 64.3581 136.09 80.6197C136.527 92.8281 139.345 104.646 141.872 113.094C142.989 116.757 144.009 119.784 144.835 121.933L147.751 121.542C147.751 121.542 147.751 121.542 147.799 121.493C149.111 120.419 150.326 119.296 151.443 118.026C161.306 106.795 161.841 89.0191 161.841 89.0191C153.63 54.8844 163.541 44.6782 163.541 44.6782C163.541 44.6782 155.33 41.1622 150.423 35.8394C150.374 35.8882 149.062 37.7927 147.168 41.0645Z" fill="#36336B"/>
<path d="M144.69 121.493C144.738 121.689 144.835 121.835 144.884 121.982L147.799 121.591C147.799 121.591 147.799 121.591 147.848 121.542C149.16 120.468 150.374 119.345 151.492 118.075C161.355 106.843 161.889 89.0679 161.889 89.0679C156.545 66.751 158.877 54.6891 161.161 48.9756C161.161 48.9756 153.144 59.6701 155.379 99.9578C155.33 99.9578 155.865 113.875 144.69 121.493Z" fill="#27254D"/>
<path d="M163.493 44.7271C163.493 44.7271 153.581 54.9333 161.792 89.0679C161.792 89.0679 161.258 106.843 151.395 118.075C154.213 119.882 158.926 122.519 163.104 123.203C165.339 120.126 167.671 116.708 168.303 115.194L176.951 95.1233C176.951 95.1233 172.044 61.4281 172.044 48.1454C172.093 48.1454 169.032 45.8991 163.493 44.7271Z" fill="#36336B"/>
<path d="M155.816 120.614C158.1 121.786 160.723 122.812 163.153 123.251C165.388 120.175 167.72 116.757 168.352 115.243L177 95.1722C177 95.1722 172.093 61.4771 172.093 48.1943C172.093 48.1943 170.587 47.12 167.817 46.0457C169.177 54.0055 170.392 64.7489 168.06 68.0696C164.222 73.5389 177.972 86.3821 172.287 93.463C168.254 98.4929 158.78 111.092 155.816 120.614Z" fill="#27254D"/>
<path d="M163.104 123.252C158.926 122.519 154.213 119.882 151.395 118.124C150.326 119.394 149.111 120.517 147.751 121.591C147.751 121.591 152.269 126.914 156.788 129.014L158.391 129.551C158.44 129.551 160.723 126.572 163.104 123.252Z" fill="white"/>
<path d="M118.064 63.284C118.064 63.284 115.829 81.1571 114.517 85.9916C114.517 85.9916 108.395 104.793 109.756 128.135L111.893 127.988C111.893 127.988 114.274 120.81 116.752 112.069C116.995 111.19 117.238 110.311 117.481 109.383C120.202 99.5185 119.327 78.7154 120.202 68.6069C120.979 59.182 130.454 48.3409 131.814 46.8271C131.911 46.7294 131.96 46.6318 131.96 46.6318L132.494 42.7739C131.523 43.4088 123.117 48.9758 121.854 50.1966C121.028 51.0268 119.91 57.5705 118.064 63.284Z" fill="#36336B"/>
<path d="M114.517 85.9915C115.829 81.157 118.064 63.2839 118.064 63.2839C117.044 66.5069 115.732 69.437 114.128 71.0485C114.128 71.0485 103.245 71.2926 95.6168 65.8721C95.6168 65.8721 93.4789 68.4115 93.1388 73.8808L94.2563 79.1548C94.2563 79.2037 107.229 86.8705 114.517 85.9915Z" fill="#36336B"/>
<path d="M114.517 85.9915C115.829 81.157 118.064 63.2839 118.064 63.2839C117.044 66.5069 115.732 69.437 114.128 71.0485C114.128 71.0485 114.711 78.1782 113.06 82.036C113.06 82.036 100.281 79.8873 93.5275 75.5412L94.2563 79.1548C94.2563 79.2037 107.229 86.8705 114.517 85.9915Z" fill="#27254D"/>
<path d="M94.9195 66.0356C94.8989 66.067 94.8776 66.1 94.8555 66.1348C94.6369 66.4785 94.3467 66.9895 94.0473 67.6737C93.5284 68.8595 92.9832 70.5625 92.7334 72.8131L88.599 68.6577C88.7565 66.5528 89.5762 65.0603 90.3634 64.0865C90.7718 63.5814 91.172 63.2153 91.4673 62.9772C91.5161 62.9379 91.5619 62.9022 91.6044 62.8699L91.7897 63.0748C92.7244 64.192 93.7792 65.191 94.9195 66.0356ZM91.9339 62.6409C91.9342 62.6408 91.9342 62.6407 91.934 62.6408L91.9339 62.6409Z" fill="white" stroke="black"/>
<path d="M89.6343 63.4091C88.7752 64.4719 87.8935 66.0697 87.6729 68.2765C87.5601 68.2882 87.4445 68.3078 87.3297 68.3315C87.0036 68.3987 86.6276 68.5111 86.2587 68.6226L86.2408 68.628C85.4753 68.8595 84.746 69.08 84.2113 69.0834C84.1584 69.0794 84.054 69.0533 83.8899 68.9722C83.7249 68.8906 83.5322 68.77 83.3186 68.6158C82.8917 68.3074 82.4198 67.8929 81.9744 67.4693C81.5663 67.0812 81.1887 66.6932 80.8993 66.3869L81.58 66.2058L83.3611 67.0113L83.8178 67.2179L84.0221 66.7633C84.0218 66.7638 84.0217 66.764 84.0218 66.7638L84.0221 66.7633L84.0244 66.7586C84.0274 66.7524 84.0332 66.7409 84.0419 66.7246C84.0593 66.6919 84.0886 66.6401 84.1315 66.5728C84.2173 66.4382 84.3574 66.2423 84.5664 66.0157C84.9831 65.5638 85.6779 64.985 86.7727 64.5265L87.0948 64.3916L87.0791 64.0427L87.0791 64.0427V64.0427L87.0791 64.0425L87.079 64.0415L87.0788 64.0372L87.0781 64.0198L87.0753 63.9511C87.073 63.891 87.0698 63.8035 87.0664 63.6943C87.0597 63.4757 87.0522 63.1713 87.0492 62.8279C87.0431 62.1344 87.0558 61.3061 87.1249 60.7039L87.1912 60.1264L86.6108 60.1472L86.6107 60.1472L86.6105 60.1472L86.6105 60.1472L86.6102 60.1472L86.6069 60.1473L86.5888 60.1477C86.572 60.148 86.546 60.1483 86.5119 60.1482C86.4436 60.1479 86.3434 60.146 86.2205 60.1393C85.9731 60.1257 85.6411 60.0931 85.2948 60.0179C85.2036 59.9981 85.1143 59.976 85.0274 59.9515C85.7594 59.963 86.4836 59.9004 87.1067 59.818C87.6997 59.7396 88.2172 59.6409 88.5868 59.5617C88.6951 59.5385 88.791 59.5169 88.8725 59.498L90.9989 62.0626C90.9636 62.09 90.9267 62.1191 90.8884 62.1499C90.5476 62.4246 90.0945 62.8399 89.6343 63.4091Z" fill="white" stroke="black"/>
<path d="M83.6805 60.4505C84.1176 60.725 84.6149 60.8824 85.0304 60.976C85.4076 61.0609 85.7638 61.1036 86.0376 61.1251C86.0103 61.5618 86.0005 62.0307 85.9994 62.4606L85.5202 62.3559L83.0056 61.8065L83.308 61.4688L83.3159 61.46L83.3233 61.4509L82.9355 61.1352C83.3233 61.4509 83.3235 61.4507 83.3236 61.4505L83.3239 61.4501L83.3246 61.4493L83.326 61.4476L83.3293 61.4434L83.3378 61.4325C83.3442 61.424 83.3522 61.4133 83.3613 61.4005C83.3796 61.3747 83.4029 61.3399 83.4286 61.2969C83.4797 61.2114 83.5422 61.0897 83.5923 60.9386C83.6383 60.7998 83.6742 60.6345 83.6805 60.4505ZM85.8234 63.1307L86.0008 62.8767C86.004 63.2172 86.0115 63.5165 86.0183 63.7322C86.0185 63.7375 86.0187 63.7427 86.0188 63.7479C85.6273 63.9341 85.2821 64.1349 84.979 64.3394L85.8234 63.1307ZM83.1098 65.8221L83.4595 65.7381C83.4096 65.8026 83.3649 65.8633 83.3253 65.9196L83.1098 65.8221Z" fill="white" stroke="black"/>
<path d="M83.8101 65.1395L85.4135 62.8443L82.061 62.1118L80.5062 62.649L79.9717 66.1162L81.5751 65.6767L83.8101 65.1395Z" fill="white"/>
<path d="M79.578 60.4595L82.7296 60.4194C82.7268 60.4952 82.7117 60.5637 82.6918 60.6237C82.6843 60.6462 82.6762 60.6672 82.668 60.6866L80.0733 61.1833C79.9463 61.066 79.8227 60.9458 79.7191 60.8378C79.6425 60.7579 79.5821 60.6903 79.541 60.639C79.5325 60.6284 79.5257 60.6196 79.5203 60.6125C79.5277 60.5799 79.5434 60.5341 79.5693 60.478C79.5722 60.4718 79.5751 60.4657 79.578 60.4595ZM79.5158 60.6418C79.5157 60.6418 79.5157 60.6408 79.5159 60.6388C79.5159 60.6407 79.5158 60.6417 79.5158 60.6418Z" fill="white" stroke="black"/>
<path d="M116.752 112.069C114.274 120.81 111.893 127.988 111.893 127.988C111.893 127.988 105.14 153.87 104.945 176.871C104.945 176.871 117.675 196.306 115.635 227.462C115.635 227.462 121.125 233.518 130.211 230.685C130.211 230.685 131.328 187.858 123.506 176.968C123.506 176.968 125.352 164.369 130.114 160.121C130.114 160.121 131.474 175.455 136.381 183.121C136.381 183.121 144.204 212.275 137.402 231.662C137.402 231.662 137.402 232.101 137.304 232.785C140.803 235.422 149.062 235.666 149.062 235.666C149.062 235.666 163.979 200.311 150.229 173.55C150.229 173.55 148.868 148.84 156.01 132.676L153.484 132.969C151.152 135.069 149.014 135.997 149.014 135.997L143.135 126.426C143.135 126.426 143.086 126.426 139.394 126.963C135.701 127.5 136.478 125.302 136.478 125.302C138.373 125.107 143.572 122.177 143.572 122.177L144.884 121.982C144.107 119.833 143.038 116.805 141.92 113.143C137.061 113.485 126.664 114.071 123.068 113.827C120.59 113.631 118.307 112.801 116.752 112.069Z" fill="#36336B"/>
<path d="M145.807 235.324C147.653 235.569 149.014 235.569 149.014 235.569C149.014 235.569 163.93 200.213 150.18 173.452C150.18 173.452 148.82 148.743 155.962 132.579L153.435 132.872C151.589 134.532 149.888 135.46 149.257 135.802C146.779 143.713 143.524 157.972 145.71 173.257C145.71 173.257 155.427 211.494 145.71 234.592C145.71 234.641 145.759 234.885 145.807 235.324Z" fill="#27254D"/>
<path d="M125.546 231.369C126.955 231.369 128.51 231.125 130.211 230.588C130.211 230.588 131.328 187.761 123.506 176.871C123.506 176.871 125.352 164.272 130.114 160.023C130.114 160.023 128.947 140.734 129.142 134.581C129.142 134.581 116.898 154.7 118.987 175.113C118.939 175.161 125.886 208.417 125.546 231.369Z" fill="#27254D"/>
<path d="M149.014 235.569C149.014 235.569 140.754 235.325 137.256 232.688C136.964 234.446 135.75 237.815 131.377 239.573C130.405 241.722 127.247 244.017 127.247 244.017C127.247 244.017 121.805 245.433 121.465 247.484C121.174 249.584 121.125 249.828 121.125 249.828C121.125 249.828 139.248 253.539 144.981 247.679L145.176 248.217C145.176 248.217 149.403 248.412 150.471 246.752C150.471 246.752 151.832 239.231 149.014 235.569Z" fill="#36336B"/>
<path d="M149.014 235.569C149.014 235.569 147.653 235.52 145.807 235.325C144.641 235.178 143.329 234.983 142.017 234.641C140.22 234.201 138.47 233.567 137.304 232.688C137.207 233.225 137.013 233.908 136.721 234.641C136.624 234.836 136.527 235.08 136.43 235.276C136.527 235.373 136.624 235.422 136.721 235.52C138.47 236.838 141.386 238.206 146.293 238.596C146.585 241.233 146.876 244.847 146.633 248.217C147.945 248.119 149.84 247.826 150.471 246.8C150.471 246.752 151.832 239.231 149.014 235.569Z" fill="#27254D"/>
<path d="M131.377 239.573C131.523 238.108 130.211 230.636 130.211 230.636C121.125 233.469 115.635 227.413 115.635 227.413C115.635 227.413 112.768 237.815 104.362 238.645C95.9569 239.475 95.0337 238.987 94.3049 241.868C94.3049 241.868 107.035 247.679 118.015 242.698C118.015 242.698 121.611 242.552 121.805 244.017L127.247 243.968C127.198 244.017 130.405 241.722 131.377 239.573Z" fill="#36336B"/>
<mask id="path-55-inside-1_20_128" fill="white">
<path fill-rule="evenodd" clip-rule="evenodd" d="M128.629 16.3061C128.622 16.3061 128.615 16.3062 128.607 16.3062L128.564 15.1342L128.559 15.0365C128.559 15.0365 128.559 15.0364 128.561 15.0363L128.559 14.9876C128.559 14.9876 134.535 14.1575 138.519 13.0831C139.928 12.6925 141.046 12.3018 141.629 11.9111C141.629 11.9111 142.795 11.9111 144.009 12.2041C145.176 12.4483 146.342 12.9855 146.536 14.011C146.536 14.011 146.527 14.0219 146.511 14.0434C146.521 14.0808 146.529 14.1188 146.536 14.1575C146.536 14.1575 145.571 15.3427 145.548 17.3754C145.563 18.6716 145.963 20.296 147.216 22.1662C147.135 22.0934 147.057 22.0208 146.981 21.9484C147.056 22.0687 147.134 22.1902 147.216 22.3127C147.216 22.3127 147.751 20.0664 149.694 19.9199C151.027 20.1877 151.019 21.6392 151.008 23.7891C151.007 23.9909 151.006 24.1989 151.006 24.4125C151.006 26.9031 148.188 28.5634 148.188 28.5634H148.188V32.1075C147.168 34.305 135.652 42.8997 135.652 42.8997C135.021 42.2161 133.806 40.5069 132.883 39.1884L133.178 36.7041C132.839 36.4314 131.974 35.7051 131.474 35.0094C130.842 34.1304 129.385 28.3192 129.385 28.3192L128.899 21.1895L128.629 16.3061ZM128.85 21.1406L129.336 28.2703C128.413 28.1238 127.49 22.5568 127.49 21.9708C127.49 21.3359 128.85 21.1406 128.85 21.1406Z"/>
</mask>
<path fill-rule="evenodd" clip-rule="evenodd" d="M128.629 16.3061C128.622 16.3061 128.615 16.3062 128.607 16.3062L128.564 15.1342L128.559 15.0365C128.559 15.0365 128.559 15.0364 128.561 15.0363L128.559 14.9876C128.559 14.9876 134.535 14.1575 138.519 13.0831C139.928 12.6925 141.046 12.3018 141.629 11.9111C141.629 11.9111 142.795 11.9111 144.009 12.2041C145.176 12.4483 146.342 12.9855 146.536 14.011C146.536 14.011 146.527 14.0219 146.511 14.0434C146.521 14.0808 146.529 14.1188 146.536 14.1575C146.536 14.1575 145.571 15.3427 145.548 17.3754C145.563 18.6716 145.963 20.296 147.216 22.1662C147.135 22.0934 147.057 22.0208 146.981 21.9484C147.056 22.0687 147.134 22.1902 147.216 22.3127C147.216 22.3127 147.751 20.0664 149.694 19.9199C151.027 20.1877 151.019 21.6392 151.008 23.7891C151.007 23.9909 151.006 24.1989 151.006 24.4125C151.006 26.9031 148.188 28.5634 148.188 28.5634H148.188V32.1075C147.168 34.305 135.652 42.8997 135.652 42.8997C135.021 42.2161 133.806 40.5069 132.883 39.1884L133.178 36.7041C132.839 36.4314 131.974 35.7051 131.474 35.0094C130.842 34.1304 129.385 28.3192 129.385 28.3192L128.899 21.1895L128.629 16.3061ZM128.85 21.1406L129.336 28.2703C128.413 28.1238 127.49 22.5568 127.49 21.9708C127.49 21.3359 128.85 21.1406 128.85 21.1406Z" fill="white"/>
<path d="M128.607 16.3062L127.608 16.343L127.644 17.3062H128.607V16.3062ZM128.629 16.3061L129.627 16.251L129.575 15.3057L128.628 15.3061L128.629 16.3061ZM128.564 15.1342L129.563 15.0974L129.563 15.0882L129.563 15.079L128.564 15.1342ZM128.559 15.0365L128.421 14.046L127.509 14.1727L127.56 15.0917L128.559 15.0365ZM128.561 15.0363L128.699 16.0267L129.593 15.9018L129.56 14.9994L128.561 15.0363ZM128.559 14.9876L128.421 13.9972L127.526 14.1215L127.559 15.0245L128.559 14.9876ZM138.519 13.0831L138.779 14.0487L138.786 14.0468L138.519 13.0831ZM141.629 11.9111V10.9111L141.325 10.9111L141.072 11.0804L141.629 11.9111ZM144.009 12.2041L143.775 13.1763L143.79 13.1798L143.804 13.1829L144.009 12.2041ZM146.536 14.011L147.311 14.6423L147.605 14.2817L147.518 13.8248L146.536 14.011ZM146.511 14.0434L145.71 13.445L145.423 13.8291L145.543 14.2933L146.511 14.0434ZM146.536 14.1575L147.311 14.7888L147.602 14.4321L147.52 13.9795L146.536 14.1575ZM145.548 17.3754L144.548 17.3642L144.548 17.3754L144.548 17.3866L145.548 17.3754ZM147.216 22.1662L146.547 22.9093L148.047 21.6096L147.216 22.1662ZM146.981 21.9484L147.67 21.224L146.132 22.4766L146.981 21.9484ZM147.216 22.3127L146.385 22.8692L147.659 24.7709L148.189 22.5442L147.216 22.3127ZM149.694 19.9199L149.891 18.9395L149.756 18.9123L149.619 18.9227L149.694 19.9199ZM151.008 23.7891L152.008 23.7943V23.7943L151.008 23.7891ZM148.188 28.5634V29.5634H148.461L148.696 29.425L148.188 28.5634ZM148.188 28.5634V27.5634H147.188V28.5634H148.188ZM148.188 32.1075L149.095 32.5286L149.188 32.3283V32.1075H148.188ZM135.652 42.8997L134.918 43.5783L135.529 44.2397L136.251 43.7011L135.652 42.8997ZM132.883 39.1884L131.89 39.0704L131.845 39.4493L132.064 39.7619L132.883 39.1884ZM133.178 36.7041L134.171 36.8221L134.236 36.2719L133.805 35.9248L133.178 36.7041ZM131.474 35.0094L130.662 35.593H130.662L131.474 35.0094ZM129.385 28.3192L128.387 28.3872L128.393 28.4761L128.415 28.5625L129.385 28.3192ZM128.899 21.1895L127.9 21.2447L127.901 21.2575L128.899 21.1895ZM129.336 28.2703L129.179 29.2579L130.419 29.4547L130.334 28.2023L129.336 28.2703ZM128.85 21.1406L129.848 21.0726L129.775 19.9976L128.708 20.1507L128.85 21.1406ZM128.607 17.3062C128.615 17.3062 128.622 17.3061 128.629 17.3061L128.628 15.3061C128.621 15.3061 128.614 15.3062 128.607 15.3062V17.3062ZM127.565 15.1711L127.608 16.343L129.607 16.2693L129.563 15.0974L127.565 15.1711ZM127.56 15.0917L127.566 15.1894L129.563 15.079L129.557 14.9813L127.56 15.0917ZM128.422 14.0459C128.422 14.0459 128.421 14.046 128.421 14.046C128.421 14.046 128.421 14.046 128.421 14.046C128.421 14.046 128.421 14.046 128.421 14.046C128.421 14.046 128.421 14.046 128.421 14.046C128.421 14.046 128.421 14.046 128.421 14.046C128.421 14.046 128.421 14.046 128.421 14.046C128.421 14.046 128.421 14.046 128.421 14.046C128.421 14.046 128.421 14.046 128.421 14.046C128.421 14.046 128.421 14.046 128.421 14.046C128.421 14.046 128.421 14.046 128.559 15.0365C128.696 16.027 128.696 16.027 128.696 16.027C128.696 16.027 128.696 16.027 128.696 16.027C128.696 16.027 128.696 16.027 128.696 16.027C128.696 16.027 128.696 16.027 128.696 16.027C128.696 16.027 128.696 16.027 128.696 16.027C128.696 16.027 128.696 16.027 128.696 16.027C128.696 16.027 128.696 16.027 128.696 16.027C128.696 16.027 128.697 16.027 128.697 16.027C128.697 16.0269 128.697 16.0269 128.697 16.0269C128.698 16.0268 128.698 16.0268 128.699 16.0267L128.422 14.0459ZM127.559 15.0245L127.561 15.0731L129.56 14.9994L129.558 14.9508L127.559 15.0245ZM138.259 12.1176C136.313 12.6423 133.86 13.1121 131.876 13.4527C130.887 13.6223 130.022 13.7586 129.405 13.8525C129.096 13.8994 128.849 13.9357 128.68 13.9602C128.595 13.9725 128.53 13.9818 128.486 13.988C128.465 13.9911 128.448 13.9934 128.437 13.9949C128.432 13.9957 128.427 13.9963 128.425 13.9966C128.424 13.9968 128.423 13.997 128.422 13.9971C128.422 13.9971 128.421 13.9971 128.421 13.9971C128.421 13.9972 128.421 13.9972 128.421 13.9972C128.421 13.9972 128.421 13.9972 128.559 14.9876C128.696 15.9781 128.696 15.9781 128.696 15.9781C128.697 15.9781 128.697 15.9781 128.697 15.9781C128.697 15.978 128.697 15.978 128.698 15.9779C128.699 15.9778 128.7 15.9777 128.701 15.9774C128.704 15.977 128.709 15.9764 128.715 15.9755C128.727 15.9739 128.744 15.9714 128.767 15.9682C128.813 15.9617 128.88 15.9521 128.967 15.9395C129.14 15.9144 129.391 15.8775 129.705 15.8298C130.332 15.7344 131.21 15.5961 132.214 15.4239C134.214 15.0807 136.741 14.5983 138.779 14.0487L138.259 12.1176ZM141.072 11.0804C140.643 11.3678 139.681 11.7234 138.252 12.1195L138.786 14.0468C140.176 13.6616 141.448 13.2358 142.185 12.7419L141.072 11.0804ZM144.244 11.232C143.571 11.0696 142.921 10.9904 142.446 10.9512C142.207 10.9314 142.007 10.9214 141.865 10.9163C141.795 10.9138 141.738 10.9125 141.698 10.9118C141.678 10.9115 141.662 10.9113 141.65 10.9112C141.644 10.9112 141.64 10.9112 141.636 10.9111C141.634 10.9111 141.633 10.9111 141.631 10.9111C141.631 10.9111 141.63 10.9111 141.63 10.9111C141.63 10.9111 141.629 10.9111 141.629 10.9111C141.629 10.9111 141.629 10.9111 141.629 10.9111C141.629 10.9111 141.629 10.9111 141.629 11.9111C141.629 12.9111 141.629 12.9111 141.628 12.9111C141.628 12.9111 141.628 12.9111 141.628 12.9111C141.628 12.9111 141.628 12.9111 141.628 12.9111C141.628 12.9111 141.628 12.9111 141.628 12.9111C141.627 12.9111 141.628 12.9111 141.628 12.9111C141.629 12.9111 141.631 12.9111 141.634 12.9112C141.64 12.9112 141.65 12.9113 141.664 12.9116C141.693 12.912 141.737 12.913 141.794 12.9151C141.909 12.9192 142.077 12.9275 142.281 12.9444C142.693 12.9784 143.234 13.0457 143.775 13.1763L144.244 11.232ZM147.518 13.8248C147.353 12.9527 146.78 12.3557 146.173 11.9703C145.573 11.5891 144.862 11.3609 144.214 11.2254L143.804 13.1829C144.323 13.2915 144.778 13.454 145.101 13.6588C145.417 13.8594 145.524 14.0438 145.553 14.1972L147.518 13.8248ZM147.312 14.6419C147.316 14.637 147.318 14.6345 147.318 14.6345C147.318 14.6346 147.317 14.6352 147.316 14.6365C147.316 14.6372 147.315 14.638 147.314 14.6389C147.314 14.6394 147.313 14.6399 147.313 14.6405C147.313 14.6408 147.312 14.6411 147.312 14.6414C147.312 14.6415 147.312 14.6417 147.312 14.6418C147.312 14.6419 147.312 14.642 147.312 14.6421C147.312 14.6421 147.312 14.6421 147.312 14.6422C147.312 14.6422 147.312 14.6422 147.312 14.6422C147.311 14.6423 147.311 14.6423 146.536 14.011C145.76 13.3796 145.76 13.3797 145.76 13.3797C145.76 13.3797 145.76 13.3797 145.76 13.3798C145.76 13.3798 145.76 13.3798 145.76 13.3799C145.76 13.38 145.76 13.3801 145.76 13.3801C145.76 13.3803 145.76 13.3805 145.76 13.3806C145.759 13.381 145.759 13.3813 145.759 13.3817C145.758 13.3824 145.758 13.3832 145.757 13.384C145.756 13.3857 145.754 13.3875 145.752 13.3895C145.749 13.3935 145.746 13.3983 145.741 13.4037C145.733 13.4146 145.722 13.4284 145.71 13.445L147.312 14.6419ZM147.52 13.9795C147.509 13.9166 147.495 13.8546 147.479 13.7935L145.543 14.2933C145.546 14.3069 145.549 14.3209 145.552 14.3355L147.52 13.9795ZM146.548 17.3866C146.558 16.5288 146.766 15.8583 146.965 15.4095C147.064 15.1849 147.161 15.0169 147.229 14.9108C147.262 14.8579 147.288 14.8208 147.304 14.8001C147.311 14.7898 147.316 14.7836 147.317 14.7817C147.318 14.7808 147.318 14.7809 147.317 14.782C147.316 14.7826 147.316 14.7835 147.315 14.7846C147.314 14.7852 147.314 14.7858 147.313 14.7865C147.313 14.7869 147.313 14.7872 147.312 14.7876C147.312 14.7878 147.312 14.7881 147.312 14.7882C147.312 14.7885 147.311 14.7888 146.536 14.1575C145.76 13.5262 145.76 13.5265 145.76 13.5268C145.76 13.5269 145.76 13.5273 145.759 13.5275C145.759 13.528 145.759 13.5284 145.758 13.5289C145.757 13.5299 145.757 13.531 145.756 13.5321C145.754 13.5344 145.752 13.537 145.749 13.5399C145.745 13.5457 145.739 13.5527 145.733 13.5609C145.72 13.5773 145.704 13.5986 145.685 13.6247C145.648 13.6768 145.598 13.7481 145.541 13.838C145.427 14.0177 145.281 14.2731 145.137 14.5988C144.847 15.2508 144.562 16.1893 144.548 17.3642L146.548 17.3866ZM148.047 21.6096C146.894 19.8878 146.56 18.4508 146.548 17.3642L144.548 17.3866C144.565 18.8924 145.033 20.7042 146.385 22.7227L148.047 21.6096ZM146.291 22.6727C146.374 22.7516 146.459 22.8305 146.547 22.9093L147.885 21.423C147.811 21.3563 147.74 21.29 147.67 21.224L146.291 22.6727ZM148.047 21.7562C147.971 21.6429 147.899 21.5309 147.83 21.4202L146.132 22.4766C146.213 22.6066 146.297 22.7375 146.385 22.8692L148.047 21.7562ZM149.619 18.9227C148.22 19.0281 147.359 19.9009 146.888 20.6266C146.65 20.992 146.493 21.3457 146.395 21.6058C146.345 21.7372 146.309 21.8484 146.285 21.93C146.272 21.9709 146.263 22.0047 146.256 22.0302C146.253 22.043 146.25 22.0537 146.248 22.0622C146.247 22.0665 146.246 22.0703 146.245 22.0734C146.245 22.075 146.244 22.0765 146.244 22.0778C146.244 22.0784 146.244 22.079 146.244 22.0796C146.244 22.0799 146.244 22.0803 146.244 22.0805C146.243 22.0809 146.243 22.0812 147.216 22.3127C148.189 22.5442 148.189 22.5445 148.189 22.5449C148.189 22.545 148.189 22.5454 148.189 22.5456C148.189 22.546 148.188 22.5465 148.188 22.5468C148.188 22.5476 148.188 22.5482 148.188 22.5487C148.188 22.5497 148.188 22.5502 148.188 22.5503C148.188 22.5503 148.188 22.5484 148.189 22.5447C148.191 22.5372 148.195 22.5226 148.201 22.5018C148.214 22.46 148.235 22.3945 148.265 22.313C148.328 22.1474 148.426 21.9303 148.565 21.7158C148.847 21.2818 149.225 20.9581 149.769 20.917L149.619 18.9227ZM152.008 23.7943C152.013 22.7704 152.026 21.7236 151.826 20.9102C151.721 20.4816 151.54 20.0372 151.207 19.6663C150.859 19.2803 150.409 19.0436 149.891 18.9395L149.497 20.9003C149.645 20.9301 149.694 20.9752 149.72 21.0039C149.759 21.0477 149.826 21.1508 149.884 21.3872C150.011 21.904 150.014 22.6579 150.008 23.784L152.008 23.7943ZM152.006 24.4125C152.006 24.2018 152.007 23.9964 152.008 23.7943L150.008 23.784C150.007 23.9854 150.006 24.1959 150.006 24.4125H152.006ZM148.188 28.5634C148.696 29.425 148.696 29.4248 148.696 29.4246C148.696 29.4246 148.697 29.4244 148.697 29.4242C148.697 29.424 148.698 29.4237 148.698 29.4234C148.699 29.4227 148.701 29.422 148.702 29.4211C148.705 29.4194 148.708 29.4173 148.713 29.4147C148.721 29.4097 148.732 29.4029 148.746 29.3946C148.773 29.3778 148.81 29.3545 148.855 29.3247C148.946 29.2654 149.072 29.18 149.221 29.0703C149.518 28.8519 149.915 28.5307 150.315 28.1181C151.093 27.3162 152.006 26.0395 152.006 24.4125H150.006C150.006 25.2761 149.51 26.0749 148.879 26.7257C148.575 27.0395 148.267 27.289 148.035 27.4599C147.92 27.5447 147.826 27.6085 147.763 27.6496C147.731 27.6702 147.708 27.6849 147.693 27.6937C147.686 27.6981 147.682 27.701 147.679 27.7024C147.678 27.703 147.678 27.7033 147.678 27.7033C147.678 27.7032 147.678 27.7031 147.679 27.7028C147.679 27.7027 147.679 27.7026 147.679 27.7024C147.679 27.7023 147.68 27.7022 147.68 27.7021C147.68 27.702 147.68 27.7018 148.188 28.5634ZM148.188 29.5634H148.188V27.5634H148.188V29.5634ZM149.188 32.1075V28.5634H147.188V32.1075H149.188ZM135.652 42.8997C136.251 43.7011 136.251 43.7011 136.251 43.701C136.251 43.7009 136.251 43.7008 136.251 43.7006C136.252 43.7003 136.252 43.6999 136.253 43.6994C136.254 43.6983 136.257 43.6966 136.259 43.6945C136.265 43.6902 136.274 43.6839 136.285 43.6756C136.307 43.659 136.34 43.6345 136.382 43.6025C136.468 43.5384 136.593 43.4444 136.752 43.3241C137.07 43.0835 137.526 42.7377 138.076 42.316C139.176 41.4729 140.654 40.3246 142.165 39.1062C143.674 37.8897 145.227 36.5948 146.472 35.4599C147.094 34.8932 147.651 34.3561 148.09 33.8817C148.506 33.4329 148.895 32.9587 149.095 32.5286L147.281 31.6864C147.225 31.8057 147.032 32.0808 146.623 32.5226C146.237 32.9389 145.726 33.4338 145.125 33.9818C143.924 35.0765 142.407 36.3423 140.91 37.5491C139.415 38.7541 137.951 39.8919 136.859 40.7289C136.314 41.1473 135.862 41.4901 135.547 41.7281C135.389 41.8471 135.266 41.9399 135.182 42.0029C135.14 42.0343 135.108 42.0583 135.086 42.0744C135.076 42.0824 135.068 42.0885 135.062 42.0925C135.059 42.0945 135.057 42.096 135.056 42.097C135.055 42.0974 135.055 42.0978 135.055 42.098C135.055 42.0982 135.054 42.0982 135.054 42.0983C135.054 42.0983 135.054 42.0983 135.652 42.8997ZM132.064 39.7619C132.967 41.0526 134.229 42.8323 134.918 43.5783L136.387 42.2211C135.813 41.5998 134.645 39.9612 133.702 38.6148L132.064 39.7619ZM132.185 36.5861L131.89 39.0704L133.876 39.3063L134.171 36.8221L132.185 36.5861ZM130.662 35.593C131.25 36.4111 132.214 37.212 132.551 37.4834L133.805 35.9248C133.464 35.6508 132.698 34.9992 132.286 34.4259L130.662 35.593ZM129.385 28.3192C128.415 28.5625 128.415 28.5626 128.415 28.5627C128.415 28.5627 128.415 28.5628 128.415 28.5629C128.415 28.5631 128.415 28.5634 128.415 28.5638C128.415 28.5646 128.416 28.5658 128.416 28.5672C128.417 28.5702 128.418 28.5746 128.419 28.5803C128.422 28.5916 128.426 28.6084 128.432 28.6301C128.443 28.6737 128.459 28.7373 128.48 28.8185C128.521 28.9808 128.581 29.2132 128.655 29.4947C128.803 30.0572 129.006 30.8179 129.23 31.6076C129.454 32.3952 129.7 33.2219 129.934 33.9129C130.05 34.2577 130.166 34.5797 130.278 34.8511C130.381 35.1006 130.51 35.3814 130.662 35.593L132.286 34.4259C132.29 34.432 132.275 34.4105 132.241 34.3426C132.21 34.2796 132.171 34.1952 132.127 34.0881C132.039 33.8734 131.938 33.5972 131.829 33.2736C131.611 32.6278 131.374 31.8369 131.155 31.0618C130.935 30.2888 130.735 29.5418 130.59 28.9872C130.517 28.7102 130.458 28.4817 130.417 28.3228C130.397 28.2433 130.381 28.1813 130.371 28.1393C130.365 28.1183 130.361 28.1023 130.359 28.0916C130.357 28.0863 130.356 28.0823 130.356 28.0796C130.355 28.0783 130.355 28.0774 130.355 28.0767C130.355 28.0764 130.355 28.0762 130.355 28.0761C130.355 28.076 130.355 28.076 130.355 28.0759C130.355 28.0759 130.355 28.0759 129.385 28.3192ZM127.901 21.2575L128.387 28.3872L130.382 28.2512L129.897 21.1215L127.901 21.2575ZM127.63 16.3613L127.9 21.2447L129.897 21.1343L129.627 16.251L127.63 16.3613ZM130.334 28.2023L129.848 21.0726L127.853 21.2086L128.338 28.3383L130.334 28.2023ZM126.49 21.9708C126.49 22.2169 126.565 22.7635 126.662 23.3459C126.766 23.9697 126.914 24.7465 127.093 25.5126C127.27 26.2706 127.485 27.0532 127.727 27.6717C127.847 27.9766 127.99 28.2867 128.164 28.5431C128.301 28.7447 128.624 29.1697 129.179 29.2579L129.493 27.2826C129.818 27.3342 129.91 27.5533 129.819 27.42C129.766 27.3416 129.686 27.1882 129.589 26.9415C129.399 26.4566 129.21 25.7834 129.041 25.0581C128.873 24.3408 128.733 23.6068 128.635 23.0175C128.586 22.723 128.548 22.4691 128.523 22.2751C128.495 22.0583 128.49 21.9696 128.49 21.9708H126.49ZM128.85 21.1406C128.708 20.1507 128.708 20.1508 128.708 20.1508C128.708 20.1508 128.707 20.1508 128.707 20.1509C128.707 20.1509 128.707 20.151 128.706 20.151C128.705 20.1511 128.705 20.1513 128.704 20.1514C128.702 20.1517 128.699 20.152 128.697 20.1524C128.692 20.1532 128.685 20.1541 128.678 20.1554C128.663 20.1578 128.642 20.1611 128.618 20.1655C128.568 20.1742 128.501 20.187 128.422 20.2047C128.266 20.2391 128.047 20.2955 127.817 20.3819C127.599 20.464 127.31 20.5963 127.058 20.8088C126.799 21.0268 126.49 21.4129 126.49 21.9708H128.49C128.49 22.2112 128.351 22.3348 128.347 22.3376C128.344 22.3404 128.355 22.3303 128.39 22.3118C128.424 22.2939 128.468 22.2739 128.523 22.2533C128.634 22.2115 128.754 22.1794 128.854 22.1574C128.902 22.1468 128.941 22.1394 128.966 22.1349C128.979 22.1327 128.987 22.1312 128.992 22.1305C128.994 22.1301 128.996 22.1299 128.996 22.1299C128.996 22.1299 128.996 22.13 128.995 22.1301C128.995 22.1301 128.994 22.1301 128.994 22.1302C128.994 22.1302 128.993 22.1303 128.993 22.1303C128.993 22.1303 128.993 22.1304 128.993 22.1304C128.993 22.1304 128.992 22.1304 128.85 21.1406Z" fill="black" mask="url(#path-55-inside-1_20_128)"/>
<path d="M143.961 47.2666C145.078 44.8737 146.196 42.7739 147.168 41.0647L143.961 44.8737L140.171 49.3664L138.519 47.6572L135.215 44.2877L131.814 46.7294L134.972 45.2644L138.519 48.4874L140.9 50.6849L143.475 48.2921C143.669 47.9991 143.815 47.6572 143.961 47.2666Z" fill="#0AC41E"/>
<path d="M118.744 116.561C120.105 116.952 121.708 117.391 123.554 117.733C127.49 118.466 132.543 118.905 138.519 118.368C140.074 118.222 141.677 118.026 143.378 117.782V117.733C142.941 116.366 142.406 114.803 141.92 113.143C140.948 113.192 139.782 113.289 138.519 113.338C138.276 113.338 137.985 113.387 137.693 113.387C132.494 113.68 125.789 114.022 123.068 113.827C122.291 113.778 121.562 113.68 120.882 113.485C119.279 113.143 117.87 112.557 116.752 112.069C116.412 113.241 116.072 114.413 115.78 115.487C116.558 115.829 117.578 116.171 118.744 116.561Z" fill="#27254D"/>
<path d="M130.162 230.636C128.51 231.174 126.955 231.369 125.498 231.418C119.23 231.467 115.586 227.462 115.586 227.462C115.586 227.462 115.343 228.439 114.711 229.806C116.655 231.613 119.91 233.518 125.449 234.299C125.352 236.936 125.109 239.426 124.72 241.673C124.575 242.503 124.429 243.333 124.235 244.066H127.198C127.198 244.066 128.656 243.04 129.871 241.673C130.454 241.038 131.037 240.305 131.328 239.622C131.425 238.987 131.182 237.034 130.891 235.178C130.891 235.031 130.842 234.885 130.842 234.69C130.551 232.541 130.162 230.636 130.162 230.636Z" fill="#27254D"/>
<path d="M117.724 112.508C123.36 105.916 120.445 80.913 120.931 69.9254C120.979 68.5093 121.125 67.3373 121.319 66.4582C122.583 60.7936 128.85 51.3199 132.057 46.6807L131.863 46.7783L131.814 46.8272C130.454 48.341 120.979 59.2309 120.202 68.6069C120.202 68.6558 120.202 68.7046 120.202 68.8023C119.376 79.0085 120.202 99.5674 117.529 109.383C117.287 110.311 117.044 111.19 116.801 112.069C117.044 112.215 117.384 112.362 117.724 112.508Z" fill="#0AC41E"/>
<path d="M94.645 65.1396C93.6247 66.4582 92.2643 68.8022 91.584 72.3182L93.1388 73.9297C93.4789 68.4603 95.6168 65.921 95.6168 65.921C95.2767 65.628 94.9851 65.3838 94.645 65.1396Z" fill="#EEEDFF"/>
<path d="M151.454 118.799C151.46 118.792 151.467 118.785 151.473 118.778L151.478 118.773C151.479 118.771 151.481 118.769 151.483 118.767C151.797 118.96 152.147 119.171 152.493 119.38L152.497 119.382L152.497 119.382L152.499 119.384C155.176 120.98 158.829 122.861 162.26 123.6C161.886 124.132 161.501 124.647 161.126 125.149C161.125 125.149 161.125 125.149 161.125 125.15C161.011 125.116 160.907 125.09 160.81 125.065C158.811 124.442 157.153 123.679 155.834 122.874C153.595 121.496 152.253 119.993 151.454 118.799Z" fill="#F3F2FF" stroke="black"/>
</g>
<defs>
<linearGradient id="paint0_linear_20_128" x1="149.128" y1="261.217" x2="148.573" y2="236.646" gradientUnits="userSpaceOnUse">
<stop stop-color="white" stop-opacity="0"/>
<stop offset="1" stop-color="#82A9FF" stop-opacity="0.21"/>
</linearGradient>
<linearGradient id="paint1_linear_20_128" x1="137.888" y1="10.1019" x2="137.888" y2="0.292938" gradientUnits="userSpaceOnUse">
<stop stop-color="#36336B"/>
<stop offset="1" stop-color="#4F4387"/>
</linearGradient>
<clipPath id="clip0_20_128">
<rect width="96" height="54" fill="white" transform="translate(0 25)"/>
</clipPath>
<clipPath id="clip1_20_128">
<rect width="121" height="129" fill="white" transform="translate(114 3.40918) rotate(-1.61455)"/>
</clipPath>
<clipPath id="clip2_20_128">
<rect width="98" height="247" fill="white" transform="translate(79 4)"/>
</clipPath>
</defs>
</svg>
