<svg width="347" height="321" viewBox="0 0 347 321" fill="none" xmlns="http://www.w3.org/2000/svg">
<g clip-path="url(#clip0_20_558)">
<path d="M102.446 28.5719C101.942 28.3077 101.453 28.3201 101.005 28.4606C100.779 28.074 100.381 27.8117 99.8309 27.7379C94.1577 27.018 88.2924 30.5454 86.9455 36.2807C85.6911 41.635 89.0093 47.5616 94.1727 49.3561C99.378 51.1726 105.672 48.4607 107.981 43.4444C110.555 37.9228 107.784 31.156 102.446 28.5719ZM95.5806 45.8537C92.1015 44.7275 89.7855 40.6683 90.6431 37.092C91.5228 33.4736 95.371 31.0359 98.9911 31.4845C99.3513 31.5123 99.6916 31.476 99.97 31.3536C100.114 31.59 100.344 31.7642 100.68 31.9404C104.19 33.6197 106.268 37.9296 104.621 41.6828C103.217 44.9728 99.0176 46.9578 95.5806 45.8537Z" fill="#82A9FF" fill-opacity="0.21"/>
<path d="M128.202 145.407C127.288 139.184 126.438 132.941 125.524 126.718C125.169 124.331 121.388 124.496 121.743 126.883C122.657 133.106 123.507 139.349 124.421 145.572C124.734 147.937 128.557 147.794 128.202 145.407Z" fill="#82A9FF" fill-opacity="0.21"/>
<path d="M134.584 132.112C127.962 134.223 121.34 136.334 114.696 138.487C112.367 139.252 113.483 142.843 115.832 142.142C122.454 140.031 129.075 137.92 135.719 135.767C138.048 135.002 136.954 131.369 134.584 132.112Z" fill="#82A9FF" fill-opacity="0.21"/>
<path d="M113.602 126.48C104.148 119.591 97.2391 109.688 94.3067 98.3275C91.6334 87.8005 92.6457 76.5757 96.9007 66.6215C98.7677 69.8011 100.593 72.9587 102.46 76.1384C103.712 78.2441 106.915 76.2196 105.663 74.1139C103.406 70.247 101.15 66.3802 98.8519 62.4913C98.9181 62.365 98.9623 62.2808 99.0285 62.1545C99.9535 60.4923 97.9105 58.6697 96.3199 59.6609C92.3436 62.1388 88.3252 64.5947 84.3488 67.0726C82.2855 68.3527 84.2784 71.5984 86.3638 70.2762C88.5553 68.9559 90.7268 67.5715 92.9183 66.2513C84.1047 88.5771 91.1914 114.891 110.978 129.237C112.966 130.655 115.589 127.897 113.602 126.48Z" fill="#82A9FF" fill-opacity="0.21"/>
<path d="M78.7643 39.936C61.6216 42.8113 46.4322 52.9912 37.2188 67.8071C35.925 69.8664 39.285 71.628 40.5788 69.5687C48.9819 55.992 63.2258 46.39 78.9212 43.722C81.2855 43.2976 81.1707 39.5335 78.7643 39.936Z" fill="#82A9FF" fill-opacity="0.21"/>
<path d="M41.8187 89.0598C42.2422 83.8603 38.0517 79.0868 32.9487 78.5048C32.5885 78.477 32.2902 78.5353 32.0339 78.6157C31.7819 78.4835 31.4217 78.4557 31.0173 78.5121C25.9925 79.3131 21.7652 83.6993 22.1041 88.9765C22.3854 93.955 26.9469 98.2252 31.9125 98.2521C36.9003 98.2368 41.3994 94.0468 41.8187 89.0598ZM32.3722 94.4135C29.3116 94.6339 26.3909 92.1365 25.9848 89.1323C25.5189 85.9357 28.0872 82.7732 31.2382 82.2781C31.4305 82.2178 31.6006 82.1997 31.7928 82.1394C31.9188 82.2055 32.0669 82.2294 32.215 82.2534C35.2007 82.5841 37.9136 84.8653 38.1253 88.036C38.2531 91.1626 35.4748 94.215 32.3722 94.4135Z" fill="#82A9FF" fill-opacity="0.21"/>
<path d="M59.5988 95.5902C59.5363 94.4839 58.6365 93.8511 57.5978 93.7897C55.8806 93.6946 54.1635 93.5995 52.4243 93.5465C51.3856 93.4851 50.5995 94.5759 50.6222 95.554C50.6847 96.6604 51.5845 97.2931 52.6231 97.3546C54.3403 97.4497 56.0574 97.5448 57.7966 97.5977C58.7933 97.6372 59.6435 96.5262 59.5988 95.5902Z" fill="#82A9FF" fill-opacity="0.21"/>
<path d="M73.2298 96.3491C73.4613 95.3969 72.7844 94.2368 71.7899 94.0911C70.287 93.8937 68.8262 93.7183 67.3234 93.5208C66.3288 93.3751 65.2993 93.909 65.0657 94.9674C64.8342 95.9196 65.5111 97.0797 66.5056 97.2253C68.0084 97.4228 69.4693 97.5982 70.9721 97.7956C71.9666 97.9413 72.9962 97.4075 73.2298 96.3491Z" fill="#82A9FF" fill-opacity="0.21"/>
<path d="M101.561 92.2537C101.222 91.1636 100.209 90.8476 99.1665 90.9986C97.2065 91.3666 95.2046 91.7127 93.2446 92.0808C92.2436 92.2538 91.7074 93.583 91.9863 94.4807C92.3251 95.5709 93.3374 95.8869 94.3803 95.7359C96.3403 95.3678 98.3423 95.0218 100.302 94.6537C101.325 94.4386 101.839 93.1515 101.561 92.2537Z" fill="#82A9FF" fill-opacity="0.21"/>
<path d="M122.063 90.1197C120.64 90.1787 119.216 90.2378 117.815 90.2547C115.351 90.3586 115.55 94.1666 117.972 94.0408C119.395 93.9817 120.818 93.9227 122.22 93.9057C124.661 93.844 124.527 90.0159 122.063 90.1197Z" fill="#82A9FF" fill-opacity="0.21"/>
<path d="M143.084 88.5266C141.661 88.5857 140.238 88.6447 138.837 88.6617C136.395 88.7234 136.572 92.5736 138.994 92.4477C140.417 92.3887 141.84 92.3296 143.241 92.3127C145.683 92.2509 145.526 88.4649 143.084 88.5266Z" fill="#82A9FF" fill-opacity="0.21"/>
<path d="M84.3219 93.5759C83.7247 92.6724 82.6462 92.4827 81.7028 92.9543C81.166 93.2633 80.5872 93.5503 80.0503 93.8593C79.1711 94.3109 78.889 95.666 79.4242 96.4834C80.0214 97.387 81.0999 97.5767 82.0433 97.105C82.5801 96.796 83.159 96.509 83.6958 96.2C84.5971 95.7063 84.8572 94.3933 84.3219 93.5759Z" fill="#82A9FF" fill-opacity="0.21"/>
<path d="M42.6114 130.647C41.0836 125.39 39.5558 120.134 38.0059 114.92C37.3106 112.569 33.7003 113.736 34.3536 116.065C35.8814 121.321 37.4092 126.577 38.9591 131.792C39.6544 134.142 43.3067 132.997 42.6114 130.647Z" fill="#82A9FF" fill-opacity="0.21"/>
<path d="M47.0881 118.125C41.008 120.735 34.9478 123.408 28.8677 126.018C26.6407 126.997 27.7344 130.631 30.0034 129.673C36.0836 127.063 42.1438 124.39 48.2239 121.78C50.4509 120.801 49.3572 117.167 47.0881 118.125Z" fill="#82A9FF" fill-opacity="0.21"/>
<path d="M80.2049 143.915C78.2442 139.076 76.2635 134.173 74.3028 129.333C73.3932 127.085 69.763 128.188 70.6505 130.478C72.6112 135.317 74.5919 140.221 76.5526 145.06C77.4842 147.266 81.1144 146.163 80.2049 143.915Z" fill="#82A9FF" fill-opacity="0.21"/>
<path d="M82.091 130.411C76.453 133.198 70.7928 136.028 65.1968 138.838C63.0096 139.946 65.0247 143.149 67.2118 142.041C72.8499 139.254 78.51 136.424 84.1061 133.614C86.2712 132.549 84.2561 129.345 82.091 130.411Z" fill="#82A9FF" fill-opacity="0.21"/>
<path d="M59.7236 31.7245C57.6482 27.3084 55.5949 22.8501 53.5195 18.4339C52.4818 16.2258 49.2786 18.2503 50.3163 20.4584C52.3917 24.8745 54.445 29.3328 56.5204 33.749C57.5161 35.935 60.7193 33.9106 59.7236 31.7245Z" fill="#82A9FF" fill-opacity="0.21"/>
<path d="M59.9794 19.0832C55.6191 22.7018 51.2368 26.3626 46.8345 29.9592C44.957 31.4977 47.7694 34.0995 49.605 32.539C53.9652 28.9203 58.3476 25.2596 62.7498 21.663C64.6274 20.1244 61.8569 17.5447 59.9794 19.0832Z" fill="#82A9FF" fill-opacity="0.21"/>
<path d="M164.3 88.9137C161.71 88.9515 159.12 88.9893 156.53 89.0271C154.11 89.0467 154.245 92.8748 156.687 92.8131C159.277 92.7753 161.867 92.7376 164.457 92.6998C166.918 92.7022 166.762 88.9162 164.3 88.9137Z" fill="#82A9FF" fill-opacity="0.21"/>
<path d="M183.951 91.0576C183.931 89.9733 183.011 89.2764 181.95 89.257L178.428 89.2353C177.409 89.2379 176.561 90.2427 176.626 91.2428C176.646 92.3271 177.566 93.024 178.627 93.0433C179.793 93.0646 180.982 93.0438 182.149 93.0651C183.19 93.0203 184.038 92.0156 183.951 91.0576Z" fill="#82A9FF" fill-opacity="0.21"/>
<path d="M222.254 93.3715C223.219 87.6505 219.108 82.1133 213.593 80.8862C213.361 80.8182 213.149 80.8144 212.915 80.8526C212.725 80.8066 212.577 80.7827 212.387 80.7367C206.727 80.3996 201.289 84.8488 200.812 90.5574C200.338 96.1598 204.664 101.595 210.231 102.313C215.714 102.986 221.316 98.8379 222.254 93.3715ZM210.415 98.4902C206.883 97.8732 204.156 94.189 204.589 90.605C205.113 86.7464 208.877 84.2646 212.566 84.4806C212.566 84.4806 212.566 84.4806 212.608 84.5027C212.65 84.5247 212.734 84.5687 212.798 84.5486C216.305 85.314 219.12 88.8297 218.579 92.518C218.015 96.2484 214.052 99.1092 210.415 98.4902Z" fill="#82A9FF" fill-opacity="0.21"/>
</g>
<g clip-path="url(#clip1_20_558)">
<path d="M243.679 171.336C243.259 171.094 242.844 171.087 242.458 171.191C242.28 170.855 241.95 170.618 241.485 170.536C236.689 169.728 231.582 172.523 230.239 177.351C228.987 181.858 231.602 187.009 235.928 188.713C240.289 190.437 245.732 188.35 247.868 184.167C250.246 179.564 248.126 173.717 243.679 171.336ZM237.246 185.785C234.328 184.708 232.5 181.178 233.353 178.168C234.226 175.123 237.581 173.185 240.642 173.692C240.947 173.728 241.238 173.709 241.478 173.614C241.592 173.82 241.782 173.976 242.061 174.137C244.986 175.686 246.603 179.421 245.073 182.554C243.767 185.301 240.129 186.843 237.246 185.785Z" fill="#82A9FF" fill-opacity="0.21"/>
<path d="M261.523 271.521C260.962 266.201 260.456 260.866 259.894 255.546C259.675 253.505 256.456 253.514 256.675 255.555C257.237 260.875 257.743 266.21 258.304 271.53C258.488 273.551 261.742 273.562 261.523 271.521Z" fill="#82A9FF" fill-opacity="0.21"/>
<path d="M267.407 260.443C261.706 262.008 256.005 263.573 250.284 265.172C248.279 265.742 249.103 268.833 251.123 268.318C256.824 266.753 262.524 265.189 268.245 263.589C270.251 263.019 269.447 259.894 267.407 260.443Z" fill="#82A9FF" fill-opacity="0.21"/>
<path d="M249.77 254.93C241.975 248.748 236.445 240.093 234.347 230.337C232.439 221.298 233.688 211.793 237.649 203.481C239.125 206.248 240.567 208.994 242.044 211.761C243.035 213.594 245.827 211.985 244.836 210.152C243.052 206.787 241.269 203.423 239.45 200.038C239.511 199.933 239.551 199.863 239.612 199.758C240.455 198.378 238.782 196.758 237.396 197.545C233.931 199.513 230.431 201.461 226.966 203.43C225.168 204.446 226.749 207.274 228.567 206.222C230.476 205.176 232.369 204.075 234.277 203.028C226.014 221.697 231.126 244.306 247.445 257.183C249.085 258.457 251.41 256.204 249.77 254.93Z" fill="#82A9FF" fill-opacity="0.21"/>
<path d="M223.159 180.174C208.491 182.024 195.229 190.15 186.886 202.422C185.716 204.127 188.51 205.741 189.681 204.035C197.293 192.788 209.73 185.121 223.162 183.397C225.186 183.118 225.218 179.915 223.159 180.174Z" fill="#82A9FF" fill-opacity="0.21"/>
<path d="M190.06 220.643C190.6 216.239 187.204 212.037 182.887 211.366C182.582 211.33 182.326 211.369 182.106 211.428C181.896 211.307 181.591 211.271 181.245 211.305C176.947 211.812 173.203 215.393 173.308 219.89C173.375 224.131 177.104 227.918 181.323 228.112C185.562 228.272 189.531 224.867 190.06 220.643ZM181.846 224.866C179.238 224.947 176.842 222.724 176.601 220.156C176.315 217.424 178.608 214.825 181.303 214.513C181.468 214.469 181.613 214.459 181.779 214.415C181.884 214.475 182.009 214.501 182.134 214.526C184.66 214.911 186.886 216.943 186.956 219.645C186.957 222.307 184.49 224.805 181.846 224.866Z" fill="#82A9FF" fill-opacity="0.21"/>
<path d="M204.944 226.809C204.93 225.866 204.187 225.297 203.306 225.209C201.85 225.069 200.394 224.929 198.918 224.824C198.037 224.735 197.331 225.635 197.317 226.467C197.332 227.41 198.074 227.979 198.955 228.067C200.411 228.207 201.867 228.347 203.343 228.453C204.189 228.521 204.95 227.606 204.944 226.809Z" fill="#82A9FF" fill-opacity="0.21"/>
<path d="M216.503 227.925C216.732 227.124 216.197 226.115 215.357 225.957C214.087 225.737 212.851 225.537 211.581 225.317C210.741 225.159 209.847 225.577 209.612 226.469C209.382 227.27 209.917 228.279 210.758 228.437C212.028 228.657 213.263 228.857 214.534 229.077C215.374 229.235 216.267 228.817 216.503 227.925Z" fill="#82A9FF" fill-opacity="0.21"/>
<path d="M240.722 225.426C240.471 224.488 239.622 224.184 238.73 224.276C237.052 224.521 235.339 224.746 233.66 224.991C232.804 225.104 232.302 226.215 232.508 226.987C232.758 227.925 233.607 228.229 234.499 228.137C236.177 227.892 237.891 227.667 239.569 227.422C240.446 227.275 240.928 226.199 240.722 225.426Z" fill="#82A9FF" fill-opacity="0.21"/>
<path d="M258.219 224.322C257.008 224.323 255.796 224.324 254.605 224.29C252.508 224.293 252.545 227.536 254.607 227.513C255.819 227.512 257.03 227.511 258.222 227.545C260.299 227.577 260.317 224.319 258.219 224.322Z" fill="#82A9FF" fill-opacity="0.21"/>
<path d="M276.14 223.696C274.929 223.697 273.717 223.698 272.526 223.664C270.449 223.632 270.465 226.91 272.528 226.887C273.74 226.886 274.951 226.885 276.143 226.919C278.22 226.951 278.218 223.728 276.14 223.696Z" fill="#82A9FF" fill-opacity="0.21"/>
<path d="M226.025 225.953C225.549 225.164 224.639 224.965 223.821 225.334C223.354 225.578 222.852 225.802 222.385 226.046C221.622 226.399 221.336 227.541 221.762 228.254C222.239 229.043 223.149 229.241 223.967 228.873C224.434 228.629 224.935 228.405 225.402 228.161C226.186 227.773 226.452 226.666 226.025 225.953Z" fill="#82A9FF" fill-opacity="0.21"/>
<path d="M189.294 256.014C188.177 251.494 187.061 246.974 185.924 242.489C185.415 240.467 182.306 241.334 182.781 243.335C183.897 247.855 185.013 252.375 186.15 256.861C186.66 258.882 189.803 258.036 189.294 256.014Z" fill="#82A9FF" fill-opacity="0.21"/>
<path d="M193.532 245.527C188.274 247.534 183.031 249.597 177.774 251.604C175.847 252.359 176.651 255.485 178.612 254.75C183.87 252.742 189.113 250.68 194.371 248.673C196.297 247.917 195.493 244.792 193.532 245.527Z" fill="#82A9FF" fill-opacity="0.21"/>
<path d="M220.784 268.591C219.285 264.411 217.771 260.175 216.273 255.995C215.577 254.053 212.454 254.864 213.129 256.841C214.628 261.022 216.141 265.257 217.64 269.438C218.355 271.345 221.479 270.534 220.784 268.591Z" fill="#82A9FF" fill-opacity="0.21"/>
<path d="M222.854 257.18C217.966 259.354 213.058 261.563 208.205 263.757C206.307 264.623 207.909 267.415 209.806 266.549C214.694 264.375 219.603 262.166 224.456 259.972C226.333 259.142 224.731 256.349 222.854 257.18Z" fill="#82A9FF" fill-opacity="0.21"/>
<path d="M207.262 172.536C205.651 168.711 204.06 164.851 202.449 161.026C201.644 159.113 198.851 160.723 199.657 162.636C201.268 166.461 202.858 170.321 204.469 174.146C205.24 176.038 208.032 174.428 207.262 172.536Z" fill="#82A9FF" fill-opacity="0.21"/>
<path d="M207.917 161.802C204.086 164.726 200.235 167.685 196.369 170.59C194.72 171.832 197.02 174.141 198.634 172.878C202.465 169.953 206.316 166.994 210.182 164.09C211.831 162.847 209.566 160.559 207.917 161.802Z" fill="#82A9FF" fill-opacity="0.21"/>
<path d="M294.157 224.759C291.954 224.702 289.752 224.644 287.55 224.587C285.492 224.52 285.474 227.778 287.552 227.81C289.754 227.867 291.957 227.925 294.159 227.983C296.251 228.07 296.249 224.847 294.157 224.759Z" fill="#82A9FF" fill-opacity="0.21"/>
<path d="M310.784 227.262C310.804 226.34 310.046 225.716 309.146 225.662L306.153 225.522C305.287 225.489 304.531 226.314 304.552 227.166C304.531 228.088 305.289 228.712 306.19 228.765C307.181 228.824 308.192 228.847 309.183 228.906C310.069 228.904 310.824 228.079 310.784 227.262Z" fill="#82A9FF" fill-opacity="0.21"/>
<path d="M343.256 230.555C344.274 225.726 340.972 220.878 336.328 219.644C336.133 219.578 335.953 219.568 335.752 219.592C335.592 219.546 335.467 219.521 335.307 219.475C330.509 218.993 325.733 222.586 325.131 227.421C324.534 232.165 328.022 236.934 332.728 237.737C337.365 238.5 342.269 235.168 343.256 230.555ZM333.017 234.495C330.036 233.848 327.847 230.623 328.339 227.592C328.918 224.331 332.203 222.352 335.33 222.663C335.33 222.663 335.33 222.663 335.365 222.683C335.4 222.703 335.469 222.744 335.525 222.729C338.479 223.501 340.75 226.586 340.162 229.702C339.554 232.853 336.087 235.147 333.017 234.495Z" fill="#82A9FF" fill-opacity="0.21"/>
</g>
<g clip-path="url(#clip2_20_558)">
<path d="M256.647 81.6638L256.648 81.6641C257.33 83.7664 257.699 86.0283 257.699 88.3978V225.355C257.699 237.457 247.866 247.296 235.773 247.296H131.818C119.726 247.296 109.893 237.457 109.893 225.355V88.3978C109.893 76.2964 119.726 66.4573 131.818 66.4573H235.773C241.186 66.4573 246.181 68.4553 250.021 71.7179C253.072 74.3503 255.386 77.771 256.647 81.6638Z" fill="white" stroke="black"/>
<path d="M248.034 83.1239H137.411C134.83 83.1239 132.679 80.8637 132.679 78.0654C132.679 75.267 134.776 73.0068 137.411 73.0068H241.742C244.646 75.6437 246.851 79.1417 248.034 83.1239Z" fill="#2F70FE"/>
<path d="M161.835 215.237L139.133 192.52L132.706 198.951L155.409 221.668L161.835 215.237Z" fill="#6DED02"/>
<path d="M155.416 192.497L132.714 215.214L139.141 221.644L161.843 198.927L155.416 192.497Z" fill="#6DED02"/>
<path d="M203.167 173.85L180.465 151.133L174.038 157.564L196.74 180.281L203.167 173.85Z" fill="#6DED02"/>
<path d="M196.7 151.138L173.997 173.855L180.424 180.286L203.126 157.568L196.7 151.138Z" fill="#6DED02"/>
<path d="M149.727 150.876C141.499 150.876 134.884 157.549 134.884 165.729C134.884 173.963 141.552 180.582 149.727 180.582C157.955 180.582 164.57 173.909 164.57 165.729C164.57 157.495 157.901 150.876 149.727 150.876ZM149.727 173.909C145.209 173.909 141.552 170.249 141.552 165.729C141.552 161.209 145.209 157.549 149.727 157.549C154.244 157.549 157.901 161.209 157.901 165.729C157.901 170.249 154.244 173.909 149.727 173.909Z" fill="#6DED02"/>
<path d="M222.274 104.65C214.046 104.65 207.431 111.323 207.431 119.502C207.431 127.736 214.1 134.355 222.274 134.355C230.503 134.355 237.117 127.682 237.117 119.502C237.117 111.323 230.449 104.65 222.274 104.65ZM222.274 127.736C217.757 127.736 214.1 124.077 214.1 119.556C214.1 115.036 217.757 111.376 222.274 111.376C226.792 111.376 230.449 115.036 230.449 119.556C230.449 124.077 226.792 127.736 222.274 127.736Z" fill="#6DED02"/>
<path d="M232.277 147.809C229.642 144.795 227.007 141.781 224.372 138.822C223.726 138.122 222.597 138.391 222.113 139.091C221.79 139.575 221.522 140.006 221.199 140.49C221.037 140.598 220.822 140.759 220.715 140.92C219.048 143.504 217.434 146.14 215.767 148.724C214.799 150.284 217.219 151.683 218.241 150.177C219.263 148.616 220.285 147.055 221.306 145.495C224.318 159.379 226.792 174.501 219.801 187.524C216.843 193.013 212.325 197.856 206.41 200.116C199.418 202.807 191.459 201.784 184.844 198.556C177.53 195.004 171.722 189.084 166.936 182.573C165.86 181.12 163.387 182.519 164.462 184.026C173.497 196.295 187.533 207.381 203.774 203.883C218.349 200.708 226.093 185.64 227.061 171.81C227.76 161.854 225.662 151.899 223.565 142.212C225.824 144.741 228.029 147.324 230.287 149.854C231.471 151.199 233.46 149.154 232.277 147.809Z" fill="#6DED02"/>
</g>
<defs>
<clipPath id="clip0_20_558">
<rect width="187.415" height="129.502" fill="white" transform="translate(60.132) rotate(27.6672)"/>
</clipPath>
<clipPath id="clip1_20_558">
<rect width="159.409" height="110.15" fill="white" transform="translate(208.707 145.589) rotate(30)"/>
</clipPath>
<clipPath id="clip2_20_558">
<rect width="148.806" height="181.785" fill="white" transform="translate(109.393 65.9573)"/>
</clipPath>
</defs>
</svg>
