<svg width="283" height="241" viewBox="0 0 283 241" fill="none" xmlns="http://www.w3.org/2000/svg">
<path fill-rule="evenodd" clip-rule="evenodd" d="M180.712 215.032C193.938 218.516 216.662 219.687 245.599 219.506C272.456 219.526 283.216 222.287 282.813 227.137C279.697 234.66 235.296 238.505 159.092 238.665C96.1832 238.861 66.8568 234.352 58.3858 226.557C45.5203 213.133 140.153 204.526 180.712 215.032Z" fill="url(#paint0_linear_20_494)"/>
<path d="M205.208 75.2321L164.441 34.6899L163.698 41.0984L198.053 75.2321H205.208Z" fill="#6DED02"/>
<path d="M123.201 75.2321L157.556 41.0984L156.814 34.6899L116.114 75.2321H123.201Z" fill="#6DED02"/>
<path d="M164.913 224.044H155.531V33.8131C155.531 31.2497 157.624 29.0911 160.256 29.0911C162.821 29.0911 164.981 31.1823 164.981 33.8131L164.913 224.044Z" fill="#6DED02"/>
<path d="M155.599 201.311L135.012 223.91H124.956L155.666 189.978L155.599 201.311Z" fill="#2F70FE"/>
<path d="M164.711 201.311L185.297 223.91H195.354L164.711 189.978V201.311Z" fill="#2F70FE"/>
<path d="M160.256 41.3685C161.523 41.3685 162.551 40.3115 162.551 39.0075C162.551 37.7036 161.523 36.6465 160.256 36.6465C158.988 36.6465 157.961 37.7036 157.961 39.0075C157.961 40.3115 158.988 41.3685 160.256 41.3685Z" fill="#8EDEF2"/>
<path d="M248 165.356H73.3214V174.598H248V165.356Z" fill="#2F70FE"/>
<path d="M248 55.3999H73.3214V59.9196H248V55.3999Z" fill="#566CD3"/>
<path d="M78.9509 164.856V60.4192H242.303V164.856H78.9509Z" fill="white" stroke="black"/>
<path d="M89.0753 127.215V124.167H145.379V127.215H89.0753Z" stroke="black"/>
<path d="M89.0753 134.837V131.79H145.379V134.837H89.0753Z" stroke="black"/>
<path d="M89.0753 142.527V139.48H145.379V142.527H89.0753Z" stroke="black"/>
<path d="M89.0753 150.218V147.17H145.379V150.218H89.0753Z" stroke="black"/>
<path d="M89.0753 157.908V154.86H145.379V157.908H89.0753Z" stroke="black"/>
<path d="M234.568 101.406H160.391V158.408H234.568V101.406Z" fill="#E5E9FF"/>
<path d="M169.367 100.529H166.735V159.285H169.367V100.529Z" fill="white"/>
<path d="M177.804 100.529H175.172V159.285H177.804V100.529Z" fill="white"/>
<path d="M186.241 100.529H183.609V159.285H186.241V100.529Z" fill="white"/>
<path d="M194.678 100.529H192.046V159.285H194.678V100.529Z" fill="white"/>
<path d="M203.115 100.529H200.483V159.285H203.115V100.529Z" fill="white"/>
<path d="M211.552 100.529H208.92V159.285H211.552V100.529Z" fill="white"/>
<path d="M219.989 100.529H217.357V159.285H219.989V100.529Z" fill="white"/>
<path d="M228.426 100.529H225.794V159.285H228.426V100.529Z" fill="white"/>
<path d="M234.838 107.073H159.041V109.704H234.838V107.073Z" fill="white"/>
<path d="M234.838 115.572H159.041V118.203H234.838V115.572Z" fill="white"/>
<path d="M234.838 124.072H159.041V126.703H234.838V124.072Z" fill="white"/>
<path d="M234.838 132.639H159.041V135.27H234.838V132.639Z" fill="white"/>
<path d="M234.838 141.139H159.041V143.77H234.838V141.139Z" fill="white"/>
<path d="M234.838 149.638H159.041V152.269H234.838V149.638Z" fill="white"/>
<path d="M160.661 138.575L159.918 136.417L191.844 125.893L218.504 132.774L234.366 124.544L235.378 126.568L218.774 135.202L218.369 135.067L191.911 128.254L160.661 138.575Z" fill="#2747B3"/>
<path d="M218.639 136.822C220.391 136.822 221.812 135.402 221.812 133.651C221.812 131.9 220.391 130.48 218.639 130.48C216.887 130.48 215.467 131.9 215.467 133.651C215.467 135.402 216.887 136.822 218.639 136.822Z" fill="#F7B75D"/>
<path d="M234.366 128.794C236.118 128.794 237.538 127.374 237.538 125.623C237.538 123.872 236.118 122.453 234.366 122.453C232.614 122.453 231.193 123.872 231.193 125.623C231.193 127.374 232.614 128.794 234.366 128.794Z" fill="#F7B75D"/>
<path d="M191.911 130.21C193.663 130.21 195.083 128.791 195.083 127.04C195.083 125.289 193.663 123.869 191.911 123.869C190.159 123.869 188.739 125.289 188.739 127.04C188.739 128.791 190.159 130.21 191.911 130.21Z" fill="#F7B75D"/>
<path d="M160.593 140.464C162.345 140.464 163.765 139.045 163.765 137.294C163.765 135.543 162.345 134.123 160.593 134.123C158.841 134.123 157.421 135.543 157.421 137.294C157.421 139.045 158.841 140.464 160.593 140.464Z" fill="#F7B75D"/>
<path d="M175.24 86.3628H170.245V94.053H175.24V86.3628Z" fill="#2747B3"/>
<path d="M185.162 77.9307H180.167V94.0531H185.162V77.9307Z" fill="#F7B75D"/>
<path d="M195.083 83.4624H190.089V94.0533H195.083V83.4624Z" fill="#121F55"/>
<path d="M205.005 72.0618H200.01V94.053H205.005V72.0618Z" fill="#2747B3"/>
<path d="M214.927 68.7566H209.932V94.0533H214.927V68.7566Z" fill="#F7B75D"/>
<path d="M224.849 62.7527H219.854V94.0531H224.849V62.7527Z" fill="#121F55"/>
<path d="M118.341 92.1642H140.614C139.872 103.092 130.828 111.66 119.758 111.66C108.217 111.66 98.8347 102.283 98.8347 90.7476C98.8347 79.6845 107.474 70.6451 118.341 69.9031V92.1642Z" fill="#121F55"/>
<path d="M121.108 88.5214V71.2522C127.79 71.7244 133.527 75.5695 136.7 81.101L121.108 88.5214Z" fill="#6DED02"/>
<path d="M139.197 89.3308H125.9L137.914 83.5969C138.657 85.4857 139.062 87.3746 139.197 89.3308Z" fill="#2F70FE"/>
<path d="M121.947 4.11475C121.947 4.11475 121.88 4.11475 121.745 4.11475C121.61 4.11475 121.407 4.11475 121.205 4.11475C120.732 4.11475 120.057 4.1822 119.18 4.24966C117.425 4.38458 114.928 4.65441 111.958 5.26153C110.473 5.53136 108.853 5.93611 107.233 6.40831C105.546 6.88052 103.858 7.48764 102.104 8.22968C101.226 8.63442 100.349 8.97171 99.4712 9.44392C99.0663 9.64629 98.5938 9.91612 98.1888 10.1185C97.9863 10.2534 97.7839 10.3883 97.5814 10.5232L97.2439 10.7256L96.9064 10.928C96.029 11.4677 95.219 12.0748 94.4091 12.6819C94.0041 13.0192 93.5991 13.289 93.2617 13.6263C93.0592 13.8287 92.8567 13.9636 92.7217 14.166L92.1817 14.7056C91.4393 15.4477 90.7643 16.1897 90.1569 16.9992C89.8194 17.4039 89.5494 17.8087 89.2794 18.2134C89.1444 18.4158 89.0094 18.6182 88.8744 18.8206C88.7394 19.0229 88.6045 19.2253 88.4695 19.4277C87.457 21.1141 86.6471 22.9355 86.1071 24.7569C85.5672 26.5782 85.2297 28.3321 85.0947 30.086C84.9597 31.7725 84.9597 33.3915 85.0272 34.8755C85.0272 35.2128 85.0947 35.6176 85.0947 35.9549C85.1622 36.2922 85.1622 36.6294 85.2297 36.9667C85.2297 37.1017 85.2972 37.304 85.2972 37.4389C85.2972 37.5739 85.3647 37.7762 85.3647 37.9111C85.4322 38.2484 85.4322 38.5183 85.4997 38.8556C85.7021 40.0698 85.9046 41.0817 86.1071 41.8912C86.3096 42.7007 86.4446 43.3752 86.5796 43.8474C86.7146 44.3196 86.7821 44.522 86.7821 44.522C86.7821 44.522 86.7146 44.2522 86.6471 43.8474C86.5796 43.3752 86.3771 42.7681 86.2421 41.8912C86.1071 41.0817 85.9046 40.0023 85.7696 38.8556C85.7696 38.5857 85.7021 38.2484 85.7021 37.9111C85.7021 37.7762 85.7021 37.5739 85.6346 37.4389C85.6346 37.304 85.6346 37.1017 85.6346 36.9667C85.6346 36.6294 85.5671 36.2922 85.5671 35.9549C85.5671 35.6176 85.5671 35.2128 85.5671 34.8755C85.5671 33.3915 85.5672 31.8399 85.8371 30.1535C86.0396 28.467 86.4446 26.7806 87.0521 25.0267C87.6595 23.2728 88.4695 21.5863 89.5494 19.9673C89.6844 19.765 89.8194 19.5626 89.9544 19.3602C90.0894 19.1579 90.2243 18.9555 90.3593 18.7531C90.6293 18.3484 90.9668 18.0111 91.3043 17.6063C91.9117 16.8643 92.5867 16.1897 93.3291 15.5151L93.8691 15.0429C94.0716 14.908 94.2741 14.7056 94.4091 14.5707C94.814 14.2334 95.1515 13.9636 95.5565 13.6938C96.3664 13.1541 97.1764 12.6144 97.9863 12.1422L98.3238 11.9399L98.6613 11.7375C98.8638 11.6026 99.0663 11.5351 99.2688 11.4002C99.6737 11.1978 100.079 10.9954 100.551 10.7931C101.361 10.3883 102.239 10.051 103.116 9.71375C104.803 9.10663 106.491 8.56697 108.111 8.16222C109.731 7.75747 111.283 7.42018 112.7 7.21781C115.603 6.7456 117.965 6.61069 119.652 6.54323C120.462 6.54323 121.137 6.47577 121.61 6.47577C121.812 6.47577 122.015 6.47577 122.082 6.47577C122.217 6.47577 122.217 6.47577 122.217 6.47577L121.947 4.11475Z" fill="#F7B75D"/>
<path d="M129.574 10.5235C129.304 10.456 129.102 10.1862 129.169 9.91633L130.249 5.3292C130.317 5.05937 130.587 4.85699 130.857 4.92445C131.127 4.99191 131.329 5.26174 131.262 5.53157L130.182 10.1187C130.182 10.3885 129.844 10.5909 129.574 10.5235Z" fill="#B9B8F1"/>
<path d="M132.477 11.4003C130.587 12.2098 128.225 13.3566 125.795 13.1542L125.525 14.1661C127.887 15.1779 131.262 16.662 132.207 17.0667C133.759 17.7413 134.434 17.2691 134.434 17.2691L140.036 14.7732C140.036 14.9081 134.367 10.6582 132.477 11.4003Z" fill="#6DED02"/>
<path d="M138.349 1.2817C138.349 1.2817 138.011 0.539663 136.256 0.472205C135.176 0.404747 131.532 0.202374 128.967 0L128.697 1.01187C130.992 1.95628 132.544 4.11493 133.827 5.66646C135.176 7.28545 142.196 6.00375 142.196 6.00375L138.349 1.2817Z" fill="#6DED02"/>
<path d="M130.641 11.3351C130.477 11.2554 130.337 11.1869 130.223 11.1307L131.005 7.9442L130.523 7.82589L131.005 7.9442L131.788 4.75503C131.915 4.7572 132.072 4.76021 132.256 4.76438C132.81 4.77697 133.609 4.80005 134.581 4.84205C136.527 4.92607 139.169 5.08565 141.957 5.38769C144.746 5.69001 147.668 6.13371 150.179 6.78287C152.711 7.43771 154.736 8.28031 155.817 9.32808C157.751 11.2628 158.955 13.7353 159.364 14.7706C158.534 15.5155 156.355 17.1851 153.66 18.005L153.657 18.006C152.223 18.4529 150.041 18.2843 147.491 17.714C144.965 17.1492 142.166 16.2121 139.549 15.2086C136.934 14.206 134.512 13.1418 132.744 12.3279C131.86 11.9211 131.14 11.5771 130.641 11.3351Z" stroke="black"/>
<path d="M154.548 18.214C157.855 17.0672 159.947 14.9085 159.947 14.9085C159.947 14.9085 159.07 12.0078 156.64 9.51191C156.438 9.30953 156.235 9.10716 156.033 8.90479C154.885 10.5912 153.198 13.8967 153.738 18.4838C154.008 18.4163 154.278 18.2814 154.548 18.214Z" fill="#6DED02"/>
<path d="M118.168 4.85688C118.168 4.85688 128.157 14.9081 129.912 7.69011C131.599 0.472112 118.168 4.85688 118.168 4.85688Z" fill="#F7B75D"/>
<path d="M131.329 7.08306C131.194 7.01561 130.452 6.81323 130.249 6.88069C130.114 6.88069 128.157 6.81323 127.077 6.81323L126.942 7.28544C127.955 7.75764 129.709 8.63459 129.844 8.70205C130.047 8.76951 130.722 8.97188 130.924 8.97188C131.059 8.97188 131.734 8.83697 132.072 8.70205L132.274 7.8251C132.004 7.55527 131.464 7.15052 131.329 7.08306Z" fill="#2F70FE"/>
<path d="M136.864 9.84885C137.134 8.70206 138.281 8.02748 139.429 8.29731C139.969 8.43223 140.441 8.76952 140.779 9.24172C141.049 9.71393 141.184 10.3211 141.049 10.8607C140.779 12.0075 139.631 12.6821 138.484 12.4122C137.944 12.2773 137.471 11.94 137.134 11.4678C136.796 10.9956 136.729 10.3885 136.864 9.84885Z" fill="#2F70FE"/>
<path d="M145.166 10.3213C144.896 9.84911 144.423 9.51182 143.816 9.3769C142.669 9.10707 141.521 9.78165 141.251 10.9284C141.116 11.4681 141.184 12.0752 141.521 12.5474C141.791 13.0196 142.264 13.3569 142.871 13.4918C144.019 13.7617 145.166 13.0871 145.436 11.9403C145.571 11.3332 145.503 10.7935 145.166 10.3213Z" fill="#2F70FE"/>
<path d="M149.891 12.952C150.025 12.4124 149.958 11.8052 149.621 11.333C149.351 10.8608 148.878 10.5235 148.271 10.3886C147.123 10.1188 145.976 10.7934 145.706 11.9402C145.571 12.4798 145.638 13.0869 145.976 13.5591C146.246 14.0313 146.718 14.3686 147.326 14.5036C148.473 14.8408 149.621 14.0988 149.891 12.952Z" fill="#2F70FE"/>
<path d="M84.4734 84.1249L84.5582 84.5201H84.9623H86.5822C86.5874 84.5201 86.6398 84.5273 86.7128 84.5958C86.7698 84.6491 86.8069 84.7105 86.8247 84.7591V87.5279C86.8247 87.5831 86.8043 87.6219 86.7727 87.6513C86.7361 87.6855 86.6883 87.7025 86.6497 87.7025H85.0298H84.6321L84.5426 88.09C84.3509 88.9204 84.0314 89.7499 83.5856 90.5138L83.3912 90.8469L83.6639 91.1195L84.8114 92.2663C84.8556 92.3105 84.8673 92.3531 84.8673 92.3849C84.8673 92.4166 84.8556 92.4593 84.8114 92.5034L82.7865 94.5272C82.7423 94.5713 82.6995 94.5832 82.6675 94.5832C82.6354 94.5832 82.5927 94.5713 82.5485 94.5272L81.401 93.3804L81.1286 93.108L80.7958 93.3021C80.0017 93.765 79.2458 94.1386 78.378 94.3244L77.9828 94.4091V94.8133V96.4323C77.9828 96.4875 77.9624 96.5263 77.9308 96.5558C77.8942 96.5899 77.8464 96.6069 77.8078 96.6069H74.973C74.9175 96.6069 74.8786 96.5864 74.8491 96.5548C74.8149 96.5183 74.798 96.4707 74.798 96.4323V94.8133V94.4155L74.4104 94.3261C73.5795 94.1345 72.7494 93.8152 71.985 93.3695L71.6522 93.1755L71.3797 93.4478L70.2323 94.5946C70.1881 94.6388 70.1454 94.6506 70.1133 94.6506C70.0813 94.6506 70.0385 94.6388 69.9943 94.5946L69.6408 94.9483L69.9943 94.5946L67.9694 92.5709C67.9252 92.5267 67.9135 92.4841 67.9135 92.4523C67.9135 92.4206 67.9252 92.3779 67.9694 92.3338L69.1168 91.187L69.3896 90.9144L69.1952 90.5813C68.732 89.7877 68.3583 89.0322 68.1724 88.1651L68.0876 87.7699H67.6835H66.0636C66.0081 87.7699 65.9691 87.7494 65.9397 87.7179C65.9055 87.6813 65.8886 87.6337 65.8886 87.5954V84.7621C65.8886 84.7069 65.909 84.6682 65.9406 84.6387C65.9772 84.6045 66.025 84.5875 66.0636 84.5875H67.6835H68.0812L68.1706 84.2C68.3624 83.3697 68.6819 82.5401 69.1277 81.7762L69.3221 81.4431L69.0493 81.1705L67.9019 80.0237C67.8577 79.9795 67.846 79.9369 67.846 79.9052C67.846 79.8734 67.8577 79.8308 67.9019 79.7866L69.9268 77.7629C69.971 77.7187 70.0138 77.7068 70.0458 77.7068C70.0769 77.7068 70.1181 77.718 70.1608 77.7589L71.2342 78.8988L71.5067 79.1881L71.85 78.988C72.6441 78.525 73.4 78.1514 74.2677 77.9656L74.663 77.8809V77.4767V75.8577C74.663 75.8025 74.6834 75.7637 74.715 75.7342C74.7516 75.7001 74.7994 75.6831 74.838 75.6831H77.6728C77.7283 75.6831 77.7672 75.7036 77.7967 75.7352C77.8309 75.7717 77.8478 75.8194 77.8478 75.8577V77.4767V77.8745L78.2354 77.9639C79.0663 78.1555 79.8964 78.4749 80.6608 78.9205L80.9936 79.1145L81.2661 78.8422L82.4135 77.6954C82.4577 77.6512 82.5004 77.6394 82.5325 77.6394C82.5645 77.6394 82.6073 77.6512 82.6515 77.6954L84.6764 79.7191C84.7206 79.7633 84.7323 79.8059 84.7323 79.8377C84.7323 79.8695 84.7206 79.9121 84.6764 79.9563L83.5289 81.103L83.2562 81.3757L83.4506 81.7087C83.9138 82.5024 84.2875 83.2578 84.4734 84.1249Z" fill="white" stroke="black"/>
<path d="M82.5049 86.1112C82.5049 89.545 79.7592 92.2895 76.3228 92.2895C72.8864 92.2895 70.1407 89.545 70.1407 86.1112C70.1407 82.6774 72.8864 79.9329 76.3228 79.9329C79.7592 79.9329 82.5049 82.6774 82.5049 86.1112Z" fill="white" stroke="black"/>
<path d="M76.6016 81.8979C78.9293 82.0632 80.6816 84.083 80.5163 86.4087C80.3509 88.7344 78.3303 90.4862 76.0027 90.3209C73.675 90.1555 71.9226 88.1357 72.088 85.81C72.2534 83.4844 74.2739 81.7325 76.6016 81.8979Z" fill="white" stroke="black"/>
<path fill-rule="evenodd" clip-rule="evenodd" d="M76.1203 86.651C76.9302 86.9208 77.1327 87.0558 77.1327 87.393C77.1327 87.7303 76.5928 87.8653 76.2553 87.8653C75.9178 87.8653 75.5803 87.7978 75.3104 87.5954C75.2429 87.528 75.1079 87.5954 75.0404 87.6629L74.6354 88.3375C74.5679 88.4049 74.5679 88.5398 74.7029 88.6073C75.0404 88.8097 75.4453 88.9446 75.8503 89.012V89.4168C75.8503 89.5517 75.9178 89.6192 76.0528 89.6192H76.7953C76.9302 89.6192 76.9977 89.5517 76.9977 89.4168V88.9446C77.8077 88.7422 78.2802 88.1351 78.2802 87.4605C78.2802 86.1788 77.2002 85.8415 76.4578 85.6391C75.6478 85.3693 75.5128 85.3019 75.5128 85.032C75.5128 84.6947 76.0528 84.6273 76.3903 84.6273C76.7953 84.6273 77.2002 84.8296 77.4702 85.032C77.5377 85.0995 77.5377 85.0995 77.6052 85.0995C77.6727 85.0995 77.7402 85.0995 77.7402 85.032L78.2802 84.4924C78.3477 84.4249 78.3477 84.29 78.2802 84.2225C77.9427 83.8852 77.4702 83.6154 76.9977 83.4805V83.0083C76.9977 82.8734 76.9302 82.8059 76.7953 82.8059H76.0528C75.9178 82.8059 75.8503 82.8734 75.8503 83.0083V83.413C74.9729 83.5479 74.3654 84.1551 74.3654 84.9646C74.3654 86.1113 75.4453 86.4486 76.1203 86.651Z" fill="#2F70FE"/>
<path d="M61.3364 17.4993H66.9173C66.4956 20.0103 64.3309 21.896 61.6739 21.896C58.7775 21.896 56.3693 19.4887 56.3693 16.5946C56.3693 13.9395 58.2559 11.7757 60.7689 11.3543V16.9993V17.4993H61.2689H61.3364Z" stroke="black"/>
<g clip-path="url(#clip0_20_494)">
<path d="M32.8233 62.5295C32.8233 71.6659 25.4991 79.0295 16.4117 79.0295C7.32421 79.0295 0 71.6659 0 62.5295C0 53.3932 7.32421 46.0295 16.4117 46.0295C25.4991 46.0295 32.8233 53.3932 32.8233 62.5295Z" fill="white"/>
<path d="M29.2969 62.5297C29.2969 69.6888 23.5325 75.4843 16.4117 75.4843C9.29094 75.4843 3.52652 69.6888 3.52652 62.5297C3.52652 55.3706 9.29094 49.5752 16.4117 49.5752C23.5325 49.5752 29.2969 55.3706 29.2969 62.5297Z" fill="#2F70FE"/>
<path d="M25.16 62.5298C25.16 67.3707 21.2267 71.257 16.4795 71.257C11.6645 71.257 7.79895 67.3025 7.79895 62.5298C7.79895 57.6889 11.7323 53.8025 16.4795 53.8025C21.2267 53.8025 25.16 57.6889 25.16 62.5298Z" fill="white"/>
<path d="M20.4807 62.5296C20.4807 64.7796 18.6497 66.6205 16.4117 66.6205C14.1738 66.6205 12.3427 64.7796 12.3427 62.5296C12.3427 60.2796 14.1738 58.4387 16.4117 58.4387C18.6497 58.4387 20.4807 60.2796 20.4807 62.5296Z" fill="#6DED02"/>
<path d="M40.69 63.825H16.4116C15.6656 63.825 15.1231 63.2114 15.1231 62.5296C15.1231 61.7796 15.7334 61.2341 16.4116 61.2341H40.69C41.436 61.2341 41.9785 61.8478 41.9785 62.5296C41.9785 63.2796 41.436 63.825 40.69 63.825Z" fill="#000C2D"/>
<path d="M40.0796 62.2566L44.2164 59.7339H49.3027L46.4544 62.5293L49.3027 65.3248H44.2164L40.0796 62.8021V62.2566Z" fill="#000C2D"/>
</g>
<defs>
<linearGradient id="paint0_linear_20_494" x1="174.28" y1="242.128" x2="173.716" y2="217.163" gradientUnits="userSpaceOnUse">
<stop stop-color="white" stop-opacity="0"/>
<stop offset="1" stop-color="#82A9FF" stop-opacity="0.21"/>
</linearGradient>
<clipPath id="clip0_20_494">
<rect width="114" height="33" fill="white" transform="translate(0 46.0295)"/>
</clipPath>
</defs>
</svg>
